<svg xmlns="http://www.w3.org/2000/svg" fill="none" viewBox="0 0 1430 436">
    <mask id="a" width="74" height="114" x="538.306" y=".79" fill="#000" maskUnits="userSpaceOnUse">
        <path fill="#fff" d="M538.306.79h74v114h-74z"/>
        <path d="M553.488 15.712c4.439-.384 6.659-.571 11.107-.937-.131-1.248-.197-1.864-.328-3.095l-.836-1.043c-.188-.206-.319-.49-.417-.839a2.9 2.9 0 0 1-.066-1.052c.049-.41.148-.767.287-1.053.139-.276.303-.49.491-.624 1.032-.838 2.154-1.49 3.301-1.864 1.131-.366 2.343-.437 3.432-.41 3.129.089 6.479.16 9.657.58 3.145.41 6.34 1.06 9.501 1.81.23 0 .516.16.762.482.189.24.279.606.336.972a2.3 2.3 0 0 1-.082 1.177c-.147.393-.336.696-.573.9-.508.411-.762.607-1.27 1.018-.147.526-.221.785-.36 1.32 2.858-.223 4.284-.34 7.142-.553.696-.018 1.393-.143 1.966-.437.598-.303 1.171-.776 1.695-1.303.328-.33.754-.561 1.196-.597.434-.036.86.178 1.18.562.786.633 1.523 1.4 2.138 2.292.598.865 1.138 1.89 1.638 2.997a25 25 0 0 1 1.744 5.726c.377 2.051.623 4.228.615 6.404 0 .883-.09 1.766-.246 2.604a20 20 0 0 1-.59 2.337c-.245.785-.688 1.249-1.204 1.454-.499.196-.999.107-1.458-.42a28 28 0 0 1-3.186 3.435 34 34 0 0 1-3.383 2.765 41 41 0 0 0 3.334.892c1.106.25 2.228.481 3.342.668-.197.874-.303 1.775-.377 2.614-.074.776-.139 1.632-.098 2.488.032.785.024 1.579-.099 2.275-.114.642-.385 1.337-.72 2.024.827.848 1.58 1.802 2.268 2.872a16.3 16.3 0 0 1 1.696 3.55c.27.75.352 1.605.246 2.533-.099.865-.361 1.704-.795 2.355-.467.704-1.089 1.4-1.695 1.944-.574.517-1.245.928-1.892 1.24.294 1.07.442 1.614.729 2.676a5.7 5.7 0 0 1-.721 2.033c-.385.67-.803 1.267-1.27 1.695a7766 7766 0 0 1-.213 17.098c-.082 2.907-.663 5.69-1.769 8.295-1.114 2.64-2.596 4.754-4.374 6.377a9.9 9.9 0 0 1-3.546 2.274c-1.18.437-2.441.642-3.662.411-1.728-.313-3.366-1.187-4.865-2.453-1.466-1.24-2.744-2.944-3.735-5.156a17 17 0 0 1-1.745 2.881c-.606.803-1.278 1.454-2.007 1.9-1.105.874-2.252 1.454-3.448 1.73-1.147.268-2.261.259-3.358-.044-.549-.08-1.098-.384-1.638-.883a5.2 5.2 0 0 1-1.221-1.748c-1.753.437-2.637.651-4.39 1.088-.926 2.435-2.171 4.343-3.719 5.565-1.548 1.231-3.268 1.463-4.775 1.106-1.343-.321-2.776-.99-3.874-2.292-1.13-1.338-1.99-3.166-2.58-5.396-.139-.58-.139-1.24-.066-1.926a5.5 5.5 0 0 1 .484-1.82c.18-.42.311-.883.409-1.356.123-.553.205-1.079.205-1.543.057-2.568.09-3.862.147-6.475-.548-1.24-.794-2.604-.819-4.022-.024-1.481.205-2.97.762-4.317.532-1.285 1.196-2.48 1.859-3.541.696-1.115 1.425-2.06 2.204-2.747-1.434.312-2.146.463-3.572.776q-1.439.334-2.744-.08c-.868-.277-1.695-.768-2.473-1.481-.32-.277-.557-.75-.688-1.374a4.6 4.6 0 0 1 0-1.971 51 51 0 0 1 1.785-6.511c.705-2.025 1.45-3.987 2.277-5.797.689.115 1.033.178 1.721.294a10 10 0 0 1-.549-2.997 10.4 10.4 0 0 1 .417-3.095c.222-.75.377-1.57.492-2.363.115-.803.229-1.677.278-2.578.418.285.934.357 1.45.348.467 0 .991-.054 1.45-.259 1.384-.535 2.711-1.382 3.956-2.408a21.2 21.2 0 0 0 3.555-3.755c-1.859.294-2.793.446-4.652.75-.975 1.908-2.212 3.059-3.686 3.433-1.434.366-2.834-.125-3.948-1.472-.877-1.061-1.655-2.55-2.212-4.183-.573-1.685-.852-3.603-.901-5.6.32-.18.598-.5.836-.893.254-.41.508-.865.696-1.355.328-.812.565-1.66.696-2.534.148-.945.246-1.97.213-2.952a8.2 8.2 0 0 0-.344-1.971q-.282-.92-.835-1.48a1.8 1.8 0 0 1-.344-.562q-.138-.348-.14-.803 0-.348.074-.696c.09-.312.213-.508.352-.588a27 27 0 0 1 3.35-3.979c1.163-1.132 2.376-2.149 3.637-2.987.557.65.836.972 1.392 1.623zm3.26 60.052a2.2 2.2 0 0 0 1.581.107c4.3-.767 6.446-1.15 10.762-1.926a3.4 3.4 0 0 0 1.589-.714c.549-.446 1.016-1.043 1.393-1.712-6.749 1.266-10.116 1.908-16.841 3.166.459.49.975.838 1.508 1.08zm.671-47.325c0 .919 0 1.383-.008 2.31.557-.446.836-.677 1.393-1.123.639.33.958.499 1.597.829l5.783-.803c-.164-.9-.246-1.347-.402-2.238zm4.817 63.442 3.3-.98c0-1.08.009-1.624.017-2.712-1.352.205-2.023.312-3.367.517.025 1.275.033 1.909.05 3.166zm8.379-39.315a44 44 0 0 1-5.226 4.468 3381 3381 0 0 1 20.068-3.639 34 34 0 0 1-5.112-2.818 46.5 46.5 0 0 1-4.832-3.72c-1.54 2.06-3.178 3.987-4.898 5.718zm8.42 21.049c1.048 1.15 2.023 2.667 2.932 4.21.41.669.639 1.445.672 2.319a5.9 5.9 0 0 1-.582 2.854c-.237.553-.483 1.213-.778 1.57-.229.276-.647.561-.974.838-.033.927-.058 1.382-.091 2.301 1.573-.303 2.368-.455 3.94-.767.041-6.894.058-10.462.099-17.633-3.523.669-5.284 1.008-8.806 1.686 1.286.642 2.572 1.516 3.572 2.613zm6.397-46.184c2.49-.312 3.727-.472 6.217-.776.368-.017.647-.267.843-.472.23-.241.566-.562.713-.99l2.433.713c.065-.722.098-1.079.164-1.793-3.973.402-5.955.607-9.928 1.026-.18.91-.262 1.365-.442 2.284zm7.552 11.22c.573.34 1.319.616 2.007.92.123-1.053.188-1.58.311-2.632-1.646.214-2.474.33-4.12.544.647.384 1.261.848 1.802 1.169"/>
    </mask>
    <path fill="#000" d="M553.488 15.712c4.439-.384 6.659-.571 11.107-.937-.131-1.248-.197-1.864-.328-3.095l-.836-1.043c-.188-.206-.319-.49-.417-.839a2.9 2.9 0 0 1-.066-1.052c.049-.41.148-.767.287-1.053.139-.276.303-.49.491-.624 1.032-.838 2.154-1.49 3.301-1.864 1.131-.366 2.343-.437 3.432-.41 3.129.089 6.479.16 9.657.58 3.145.41 6.34 1.06 9.501 1.81.23 0 .516.16.762.482.189.24.279.606.336.972a2.3 2.3 0 0 1-.082 1.177c-.147.393-.336.696-.573.9-.508.411-.762.607-1.27 1.018-.147.526-.221.785-.36 1.32 2.858-.223 4.284-.34 7.142-.553.696-.018 1.393-.143 1.966-.437.598-.303 1.171-.776 1.695-1.303.328-.33.754-.561 1.196-.597.434-.036.86.178 1.18.562.786.633 1.523 1.4 2.138 2.292.598.865 1.138 1.89 1.638 2.997a25 25 0 0 1 1.744 5.726c.377 2.051.623 4.228.615 6.404 0 .883-.09 1.766-.246 2.604a20 20 0 0 1-.59 2.337c-.245.785-.688 1.249-1.204 1.454-.499.196-.999.107-1.458-.42a28 28 0 0 1-3.186 3.435 34 34 0 0 1-3.383 2.765 41 41 0 0 0 3.334.892c1.106.25 2.228.481 3.342.668-.197.874-.303 1.775-.377 2.614-.074.776-.139 1.632-.098 2.488.032.785.024 1.579-.099 2.275-.114.642-.385 1.337-.72 2.024.827.848 1.58 1.802 2.268 2.872a16.3 16.3 0 0 1 1.696 3.55c.27.75.352 1.605.246 2.533-.099.865-.361 1.704-.795 2.355-.467.704-1.089 1.4-1.695 1.944-.574.517-1.245.928-1.892 1.24.294 1.07.442 1.614.729 2.676a5.7 5.7 0 0 1-.721 2.033c-.385.67-.803 1.267-1.27 1.695a7766 7766 0 0 1-.213 17.098c-.082 2.907-.663 5.69-1.769 8.295-1.114 2.64-2.596 4.754-4.374 6.377a9.9 9.9 0 0 1-3.546 2.274c-1.18.437-2.441.642-3.662.411-1.728-.313-3.366-1.187-4.865-2.453-1.466-1.24-2.744-2.944-3.735-5.156a17 17 0 0 1-1.745 2.881c-.606.803-1.278 1.454-2.007 1.9-1.105.874-2.252 1.454-3.448 1.73-1.147.268-2.261.259-3.358-.044-.549-.08-1.098-.384-1.638-.883a5.2 5.2 0 0 1-1.221-1.748c-1.753.437-2.637.651-4.39 1.088-.926 2.435-2.171 4.343-3.719 5.565-1.548 1.231-3.268 1.463-4.775 1.106-1.343-.321-2.776-.99-3.874-2.292-1.13-1.338-1.99-3.166-2.58-5.396-.139-.58-.139-1.24-.066-1.926a5.5 5.5 0 0 1 .484-1.82c.18-.42.311-.883.409-1.356.123-.553.205-1.079.205-1.543.057-2.568.09-3.862.147-6.475-.548-1.24-.794-2.604-.819-4.022-.024-1.481.205-2.97.762-4.317.532-1.285 1.196-2.48 1.859-3.541.696-1.115 1.425-2.06 2.204-2.747-1.434.312-2.146.463-3.572.776q-1.439.334-2.744-.08c-.868-.277-1.695-.768-2.473-1.481-.32-.277-.557-.75-.688-1.374a4.6 4.6 0 0 1 0-1.971 51 51 0 0 1 1.785-6.511c.705-2.025 1.45-3.987 2.277-5.797.689.115 1.033.178 1.721.294a10 10 0 0 1-.549-2.997 10.4 10.4 0 0 1 .417-3.095c.222-.75.377-1.57.492-2.363.115-.803.229-1.677.278-2.578.418.285.934.357 1.45.348.467 0 .991-.054 1.45-.259 1.384-.535 2.711-1.382 3.956-2.408a21.2 21.2 0 0 0 3.555-3.755c-1.859.294-2.793.446-4.652.75-.975 1.908-2.212 3.059-3.686 3.433-1.434.366-2.834-.125-3.948-1.472-.877-1.061-1.655-2.55-2.212-4.183-.573-1.685-.852-3.603-.901-5.6.32-.18.598-.5.836-.893.254-.41.508-.865.696-1.355.328-.812.565-1.66.696-2.534.148-.945.246-1.97.213-2.952a8.2 8.2 0 0 0-.344-1.971q-.282-.92-.835-1.48a1.8 1.8 0 0 1-.344-.562q-.138-.348-.14-.803 0-.348.074-.696c.09-.312.213-.508.352-.588a27 27 0 0 1 3.35-3.979c1.163-1.132 2.376-2.149 3.637-2.987.557.65.836.972 1.392 1.623zm3.26 60.052a2.2 2.2 0 0 0 1.581.107c4.3-.767 6.446-1.15 10.762-1.926a3.4 3.4 0 0 0 1.589-.714c.549-.446 1.016-1.043 1.393-1.712-6.749 1.266-10.116 1.908-16.841 3.166.459.49.975.838 1.508 1.08zm.671-47.325c0 .919 0 1.383-.008 2.31.557-.446.836-.677 1.393-1.123.639.33.958.499 1.597.829l5.783-.803c-.164-.9-.246-1.347-.402-2.238zm4.817 63.442 3.3-.98c0-1.08.009-1.624.017-2.712-1.352.205-2.023.312-3.367.517.025 1.275.033 1.909.05 3.166zm8.379-39.315a44 44 0 0 1-5.226 4.468 3381 3381 0 0 1 20.068-3.639 34 34 0 0 1-5.112-2.818 46.5 46.5 0 0 1-4.832-3.72c-1.54 2.06-3.178 3.987-4.898 5.718zm8.42 21.049c1.048 1.15 2.023 2.667 2.932 4.21.41.669.639 1.445.672 2.319a5.9 5.9 0 0 1-.582 2.854c-.237.553-.483 1.213-.778 1.57-.229.276-.647.561-.974.838-.033.927-.058 1.382-.091 2.301 1.573-.303 2.368-.455 3.94-.767.041-6.894.058-10.462.099-17.633-3.523.669-5.284 1.008-8.806 1.686 1.286.642 2.572 1.516 3.572 2.613zm6.397-46.184c2.49-.312 3.727-.472 6.217-.776.368-.017.647-.267.843-.472.23-.241.566-.562.713-.99l2.433.713c.065-.722.098-1.079.164-1.793-3.973.402-5.955.607-9.928 1.026-.18.91-.262 1.365-.442 2.284zm7.552 11.22c.573.34 1.319.616 2.007.92.123-1.053.188-1.58.311-2.632-1.646.214-2.474.33-4.12.544.647.384 1.261.848 1.802 1.169"/>
    <path stroke="#f3f0e6" stroke-width="8" d="M553.488 15.712c4.439-.384 6.659-.571 11.107-.937-.131-1.248-.197-1.864-.328-3.095l-.836-1.043c-.188-.206-.319-.49-.417-.839a2.9 2.9 0 0 1-.066-1.052c.049-.41.148-.767.287-1.053.139-.276.303-.49.491-.624 1.032-.838 2.154-1.49 3.301-1.864 1.131-.366 2.343-.437 3.432-.41 3.129.089 6.479.16 9.657.58 3.145.41 6.34 1.06 9.501 1.81.23 0 .516.16.762.482.189.24.279.606.336.972a2.3 2.3 0 0 1-.082 1.177c-.147.393-.336.696-.573.9-.508.411-.762.607-1.27 1.018-.147.526-.221.785-.36 1.32 2.858-.223 4.284-.34 7.142-.553.696-.018 1.393-.143 1.966-.437.598-.303 1.171-.776 1.695-1.303.328-.33.754-.561 1.196-.597.434-.036.86.178 1.18.562.786.633 1.523 1.4 2.138 2.292.598.865 1.138 1.89 1.638 2.997a25 25 0 0 1 1.744 5.726c.377 2.051.623 4.228.615 6.404 0 .883-.09 1.766-.246 2.604a20 20 0 0 1-.59 2.337c-.245.785-.688 1.249-1.204 1.454-.499.196-.999.107-1.458-.42a28 28 0 0 1-3.186 3.435 34 34 0 0 1-3.383 2.765 41 41 0 0 0 3.334.892c1.106.25 2.228.481 3.342.668-.197.874-.303 1.775-.377 2.614-.074.776-.139 1.632-.098 2.488.032.785.024 1.579-.099 2.275-.114.642-.385 1.337-.72 2.024.827.848 1.58 1.802 2.268 2.872a16.3 16.3 0 0 1 1.696 3.55c.27.75.352 1.605.246 2.533-.099.865-.361 1.704-.795 2.355-.467.704-1.089 1.4-1.695 1.944-.574.517-1.245.928-1.892 1.24.294 1.07.442 1.614.729 2.676a5.7 5.7 0 0 1-.721 2.033c-.385.67-.803 1.267-1.27 1.695a7766 7766 0 0 1-.213 17.098c-.082 2.907-.663 5.69-1.769 8.295-1.114 2.64-2.596 4.754-4.374 6.377a9.9 9.9 0 0 1-3.546 2.274c-1.18.437-2.441.642-3.662.411-1.728-.313-3.366-1.187-4.865-2.453-1.466-1.24-2.744-2.944-3.735-5.156a17 17 0 0 1-1.745 2.881c-.606.803-1.278 1.454-2.007 1.9-1.105.874-2.252 1.454-3.448 1.73-1.147.268-2.261.259-3.358-.044-.549-.08-1.098-.384-1.638-.883a5.2 5.2 0 0 1-1.221-1.748c-1.753.437-2.637.651-4.39 1.088-.926 2.435-2.171 4.343-3.719 5.565-1.548 1.231-3.268 1.463-4.775 1.106-1.343-.321-2.776-.99-3.874-2.292-1.13-1.338-1.99-3.166-2.58-5.396-.139-.58-.139-1.24-.066-1.926a5.5 5.5 0 0 1 .484-1.82c.18-.42.311-.883.409-1.356.123-.553.205-1.079.205-1.543.057-2.568.09-3.862.147-6.475-.548-1.24-.794-2.604-.819-4.022-.024-1.481.205-2.97.762-4.317.532-1.285 1.196-2.48 1.859-3.541.696-1.115 1.425-2.06 2.204-2.747-1.434.312-2.146.463-3.572.776q-1.439.334-2.744-.08c-.868-.277-1.695-.768-2.473-1.481-.32-.277-.557-.75-.688-1.374a4.6 4.6 0 0 1 0-1.971 51 51 0 0 1 1.785-6.511c.705-2.025 1.45-3.987 2.277-5.797.689.115 1.033.178 1.721.294a10 10 0 0 1-.549-2.997 10.4 10.4 0 0 1 .417-3.095c.222-.75.377-1.57.492-2.363.115-.803.229-1.677.278-2.578.418.285.934.357 1.45.348.467 0 .991-.054 1.45-.259 1.384-.535 2.711-1.382 3.956-2.408a21.2 21.2 0 0 0 3.555-3.755c-1.859.294-2.793.446-4.652.75-.975 1.908-2.212 3.059-3.686 3.433-1.434.366-2.834-.125-3.948-1.472-.877-1.061-1.655-2.55-2.212-4.183-.573-1.685-.852-3.603-.901-5.6.32-.18.598-.5.836-.893.254-.41.508-.865.696-1.355.328-.812.565-1.66.696-2.534.148-.945.246-1.97.213-2.952a8.2 8.2 0 0 0-.344-1.971q-.282-.92-.835-1.48a1.8 1.8 0 0 1-.344-.562q-.138-.348-.14-.803 0-.348.074-.696c.09-.312.213-.508.352-.588a27 27 0 0 1 3.35-3.979c1.163-1.132 2.376-2.149 3.637-2.987.557.65.836.972 1.392 1.623zm3.26 60.052a2.2 2.2 0 0 0 1.581.107c4.3-.767 6.446-1.15 10.762-1.926a3.4 3.4 0 0 0 1.589-.714c.549-.446 1.016-1.043 1.393-1.712-6.749 1.266-10.116 1.908-16.841 3.166.459.49.975.838 1.508 1.08zm.671-47.325c0 .919 0 1.383-.008 2.31.557-.446.836-.677 1.393-1.123.639.33.958.499 1.597.829l5.783-.803c-.164-.9-.246-1.347-.402-2.238zm4.817 63.442 3.3-.98c0-1.08.009-1.624.017-2.712-1.352.205-2.023.312-3.367.517.025 1.275.033 1.909.05 3.166zm8.379-39.315a44 44 0 0 1-5.226 4.468 3381 3381 0 0 1 20.068-3.639 34 34 0 0 1-5.112-2.818 46.5 46.5 0 0 1-4.832-3.72c-1.54 2.06-3.178 3.987-4.898 5.718zm8.42 21.049c1.048 1.15 2.023 2.667 2.932 4.21.41.669.639 1.445.672 2.319a5.9 5.9 0 0 1-.582 2.854c-.237.553-.483 1.213-.778 1.57-.229.276-.647.561-.974.838-.033.927-.058 1.382-.091 2.301 1.573-.303 2.368-.455 3.94-.767.041-6.894.058-10.462.099-17.633-3.523.669-5.284 1.008-8.806 1.686 1.286.642 2.572 1.516 3.572 2.613zm6.397-46.184c2.49-.312 3.727-.472 6.217-.776.368-.017.647-.267.843-.472.23-.241.566-.562.713-.99l2.433.713c.065-.722.098-1.079.164-1.793-3.973.402-5.955.607-9.928 1.026-.18.91-.262 1.365-.442 2.284zm7.552 11.22c.573.34 1.319.616 2.007.92.123-1.053.188-1.58.311-2.632-1.646.214-2.474.33-4.12.544.647.384 1.261.848 1.802 1.169Z" mask="url(#a)"/>
    <mask id="b" width="78" height="102" x="603.758" y=".383" fill="#000" maskUnits="userSpaceOnUse">
        <path fill="#fff" d="M603.758.383h78v102h-78z"/>
        <path d="M629.203 10.94c-.188-.053-.344-.178-.483-.356a1.3 1.3 0 0 1-.27-.723c-.016-.276.057-.57.156-.811q.145-.36.425-.544a19 19 0 0 1 4.595-2.489c1.581-.606 3.252-1.052 4.923-1.204 1.303-.125 2.646-.17 3.924-.259a77 77 0 0 1 3.857-.17c2.261-.026 4.563.197 6.709.821 2.113.616 4.202 1.552 6.192 2.703.229.107.459.259.557.41.098.17.131.473.131.75 0 .222-.082.463-.147.677a.86.86 0 0 1-.426.509 4.8 4.8 0 0 1-1.131.865 15 15 0 0 1-1.409.624c0 .348 0 .518-.008.865 3.596-.508 5.398-.758 8.994-1.24.606-.115 1.187-.285 1.687-.526a14 14 0 0 0 1.622-.936c1.065.651 2.113 1.4 3.129 2.23a19.7 19.7 0 0 1 2.842 2.854 8 8 0 0 1 1.245 2.132c.328.847.524 1.783.532 2.702.009.803-.245 1.57-.72 2.14a2.04 2.04 0 0 1-1.761.759c-2.957.58-4.44.874-7.397 1.48-.008.732-.016 1.097-.024 1.829a15 15 0 0 0 1.482-.696 17 17 0 0 0 1.483-.865 20.3 20.3 0 0 1 3.137 2.453 18 18 0 0 1 2.711 3.21c.418.536.672 1.169.688 1.82a4.6 4.6 0 0 1-.442 2.06 2.5 2.5 0 0 1-1.139 1.16c-.458.232-.942.321-1.409.151-2.653.34-3.98.518-6.626.875-.008.945-.016 1.418-.025 2.372.795.401 1.467 1.026 2.024 1.784.573.785.958 1.802 1.097 2.979.156 1.302-.049 2.533-.671 3.657-.623 1.124-1.434 1.81-2.417 2.069a19.7 19.7 0 0 1 4.694 3.291c1.449 1.356 2.752 2.935 3.915 4.727.467.714.786 1.588.893 2.551.098.901-.017 1.891-.312 2.899-.147.383-.352.883-.647 1.347-.246.383-.622.695-.999.91-.049 5.2-.074 7.768-.131 12.683a20.4 20.4 0 0 1-.762 4.709c-.442 1.57-1.073 3.023-1.892 4.29-.885 1.356-2.056 2.274-3.375 2.685-1.302.401-2.637.303-3.751-.322-1.245-.695-2.531-1.587-3.719-2.497a33 33 0 0 1-3.35-2.979c.115 2.078-.245 4.076-1.138 5.807-.901 1.739-2.31 3.032-3.874 3.915-1.131.633-2.343 1.124-3.621 1.347a8.4 8.4 0 0 1-3.661-.187 8.1 8.1 0 0 1-3.973-2.426c-1.056-1.178-1.875-2.712-2.318-4.612a5.6 5.6 0 0 0-.335-1.025c-.14-.322-.271-.678-.41-1.026.025 1.516-.278 3.015-.835 4.468-.549 1.427-1.327 2.712-2.302 3.764-.762.82-1.638 1.383-2.621 1.633a3.45 3.45 0 0 1-2.654-.348 9.6 9.6 0 0 1-3.587-3.247c-.967-1.463-1.655-3.282-2.089-5.298.377-.58.655-1.23.868-1.873.213-.669.393-1.373.451-2.096-.009-1.23-.017-1.855-.025-3.104a54 54 0 0 1-2.859 9.16 42.6 42.6 0 0 1-4.3 8 5.4 5.4 0 0 1-1.621 1.437c-.549.32-1.131.5-1.68.454-.63-.053-1.236-.338-1.728-.722-.5-.383-1.007-.892-1.368-1.56-.589-1.125-.958-2.445-1.13-3.952-.164-1.436-.156-2.952 0-4.486a36 36 0 0 0 .074-5.709 24.8 24.8 0 0 0-.91-5.262c.615.018.918.036 1.532.054 1.573-6.36 2.613-12.924 3.178-19.578.574-6.725.705-13.441.328-19.997a327 327 0 0 1-1.868-1.73c.459-.785.688-1.168 1.147-1.944q-.972-.35-1.663-1.33c-.458-.66-.794-1.48-.95-2.408-.188-1.186-.18-2.452-.024-3.674.155-1.231.589-2.301 1.089-3.175.541-.946 1.106-2.016 1.646-2.953.533-.91 1.073-1.873 1.647-2.791l1.867 1.587A903 903 0 0 1 631.3 16.14c.025-1.757.041-2.622.066-4.325-.86-.348-1.294-.527-2.154-.874zm-.802 21.826c.925-.223 1.392-.33 2.318-.544.041-.883.057-1.32.098-2.195-1.597.25-2.4.384-3.997.634.631.838.95 1.257 1.581 2.105m3.325 23.44c-.63-.277-1.31-.857-1.728-1.535-.385-.624-.631-1.463-.811-2.265a9.2 9.2 0 0 1-.172-2.64 5.6 5.6 0 0 1 .516-1.99 6 6 0 0 1 1.073-1.525c-.008-1.257-.016-1.89-.024-3.148-.762.143-1.139.223-1.893.366 0 2.988-.008 6.029-.122 9.008-.107 2.997-.361 6.047-.68 9.07.524-.945 1.196-1.8 1.851-2.568.663-.767 1.351-1.516 2.056-2.07.974.42 1.466.625 2.441 1.035 2.531-.615 3.8-.91 6.331-1.498.008-.758.016-1.142.025-1.9-2.679.633-4.014.964-6.684 1.624-.754.285-1.524.33-2.171.035zm6.356 27.194c.565-.152 1.081-.509 1.491-1.07.385-.527.606-1.231.663-2.052.058-3.808.082-5.762.14-9.722-.844.188-1.27.286-2.113.482-.074 5.066-.107 7.563-.173 12.37zm8.379-54.14c2.335-.428 3.506-.633 5.841-1.043.04-.83.057-1.249.098-2.078-2.359.365-3.547.553-5.906.927-.008.874-.016 1.32-.033 2.195m-.172 12.96c2.335-.49 3.506-.731 5.849-1.204.041-.9.057-1.347.098-2.239-2.367.464-3.547.705-5.914 1.187-.008.9-.016 1.355-.033 2.265zm11.55 10.114c1.916-.392 2.883-.588 4.799-.963.467.09.869-.09 1.204-.473.361-.41.623-.936.721-1.587-2.711.544-4.071.82-6.782 1.382.017.66.033.981.049 1.641zm-.336 21.219c.647-.152.974-.223 1.63-.375.032-2.836.049-4.272.09-7.18-.647.143-.975.215-1.63.357-.033 2.917-.058 4.353-.09 7.198"/>
    </mask>
    <path fill="#000" d="M629.203 10.94c-.188-.053-.344-.178-.483-.356a1.3 1.3 0 0 1-.27-.723c-.016-.276.057-.57.156-.811q.145-.36.425-.544a19 19 0 0 1 4.595-2.489c1.581-.606 3.252-1.052 4.923-1.204 1.303-.125 2.646-.17 3.924-.259a77 77 0 0 1 3.857-.17c2.261-.026 4.563.197 6.709.821 2.113.616 4.202 1.552 6.192 2.703.229.107.459.259.557.41.098.17.131.473.131.75 0 .222-.082.463-.147.677a.86.86 0 0 1-.426.509 4.8 4.8 0 0 1-1.131.865 15 15 0 0 1-1.409.624c0 .348 0 .518-.008.865 3.596-.508 5.398-.758 8.994-1.24.606-.115 1.187-.285 1.687-.526a14 14 0 0 0 1.622-.936c1.065.651 2.113 1.4 3.129 2.23a19.7 19.7 0 0 1 2.842 2.854 8 8 0 0 1 1.245 2.132c.328.847.524 1.783.532 2.702.009.803-.245 1.57-.72 2.14a2.04 2.04 0 0 1-1.761.759c-2.957.58-4.44.874-7.397 1.48-.008.732-.016 1.097-.024 1.829a15 15 0 0 0 1.482-.696 17 17 0 0 0 1.483-.865 20.3 20.3 0 0 1 3.137 2.453 18 18 0 0 1 2.711 3.21c.418.536.672 1.169.688 1.82a4.6 4.6 0 0 1-.442 2.06 2.5 2.5 0 0 1-1.139 1.16c-.458.232-.942.321-1.409.151-2.653.34-3.98.518-6.626.875-.008.945-.016 1.418-.025 2.372.795.401 1.467 1.026 2.024 1.784.573.785.958 1.802 1.097 2.979.156 1.302-.049 2.533-.671 3.657-.623 1.124-1.434 1.81-2.417 2.069a19.7 19.7 0 0 1 4.694 3.291c1.449 1.356 2.752 2.935 3.915 4.727.467.714.786 1.588.893 2.551.098.901-.017 1.891-.312 2.899-.147.383-.352.883-.647 1.347-.246.383-.622.695-.999.91-.049 5.2-.074 7.768-.131 12.683a20.4 20.4 0 0 1-.762 4.709c-.442 1.57-1.073 3.023-1.892 4.29-.885 1.356-2.056 2.274-3.375 2.685-1.302.401-2.637.303-3.751-.322-1.245-.695-2.531-1.587-3.719-2.497a33 33 0 0 1-3.35-2.979c.115 2.078-.245 4.076-1.138 5.807-.901 1.739-2.31 3.032-3.874 3.915-1.131.633-2.343 1.124-3.621 1.347a8.4 8.4 0 0 1-3.661-.187 8.1 8.1 0 0 1-3.973-2.426c-1.056-1.178-1.875-2.712-2.318-4.612a5.6 5.6 0 0 0-.335-1.025c-.14-.322-.271-.678-.41-1.026.025 1.516-.278 3.015-.835 4.468-.549 1.427-1.327 2.712-2.302 3.764-.762.82-1.638 1.383-2.621 1.633a3.45 3.45 0 0 1-2.654-.348 9.6 9.6 0 0 1-3.587-3.247c-.967-1.463-1.655-3.282-2.089-5.298.377-.58.655-1.23.868-1.873.213-.669.393-1.373.451-2.096-.009-1.23-.017-1.855-.025-3.104a54 54 0 0 1-2.859 9.16 42.6 42.6 0 0 1-4.3 8 5.4 5.4 0 0 1-1.621 1.437c-.549.32-1.131.5-1.68.454-.63-.053-1.236-.338-1.728-.722-.5-.383-1.007-.892-1.368-1.56-.589-1.125-.958-2.445-1.13-3.952-.164-1.436-.156-2.952 0-4.486a36 36 0 0 0 .074-5.709 24.8 24.8 0 0 0-.91-5.262c.615.018.918.036 1.532.054 1.573-6.36 2.613-12.924 3.178-19.578.574-6.725.705-13.441.328-19.997a327 327 0 0 1-1.868-1.73c.459-.785.688-1.168 1.147-1.944q-.972-.35-1.663-1.33c-.458-.66-.794-1.48-.95-2.408-.188-1.186-.18-2.452-.024-3.674.155-1.231.589-2.301 1.089-3.175.541-.946 1.106-2.016 1.646-2.953.533-.91 1.073-1.873 1.647-2.791l1.867 1.587A903 903 0 0 1 631.3 16.14c.025-1.757.041-2.622.066-4.325-.86-.348-1.294-.527-2.154-.874zm-.802 21.826c.925-.223 1.392-.33 2.318-.544.041-.883.057-1.32.098-2.195-1.597.25-2.4.384-3.997.634.631.838.95 1.257 1.581 2.105m3.325 23.44c-.63-.277-1.31-.857-1.728-1.535-.385-.624-.631-1.463-.811-2.265a9.2 9.2 0 0 1-.172-2.64 5.6 5.6 0 0 1 .516-1.99 6 6 0 0 1 1.073-1.525c-.008-1.257-.016-1.89-.024-3.148-.762.143-1.139.223-1.893.366 0 2.988-.008 6.029-.122 9.008-.107 2.997-.361 6.047-.68 9.07.524-.945 1.196-1.8 1.851-2.568.663-.767 1.351-1.516 2.056-2.07.974.42 1.466.625 2.441 1.035 2.531-.615 3.8-.91 6.331-1.498.008-.758.016-1.142.025-1.9-2.679.633-4.014.964-6.684 1.624-.754.285-1.524.33-2.171.035zm6.356 27.194c.565-.152 1.081-.509 1.491-1.07.385-.527.606-1.231.663-2.052.058-3.808.082-5.762.14-9.722-.844.188-1.27.286-2.113.482-.074 5.066-.107 7.563-.173 12.37zm8.379-54.14c2.335-.428 3.506-.633 5.841-1.043.04-.83.057-1.249.098-2.078-2.359.365-3.547.553-5.906.927-.008.874-.016 1.32-.033 2.195m-.172 12.96c2.335-.49 3.506-.731 5.849-1.204.041-.9.057-1.347.098-2.239-2.367.464-3.547.705-5.914 1.187-.008.9-.016 1.355-.033 2.265zm11.55 10.114c1.916-.392 2.883-.588 4.799-.963.467.09.869-.09 1.204-.473.361-.41.623-.936.721-1.587-2.711.544-4.071.82-6.782 1.382.017.66.033.981.049 1.641zm-.336 21.219c.647-.152.974-.223 1.63-.375.032-2.836.049-4.272.09-7.18-.647.143-.975.215-1.63.357-.033 2.917-.058 4.353-.09 7.198"/>
    <path stroke="#f3f0e6" stroke-width="8" d="M629.203 10.94c-.188-.053-.344-.178-.483-.356a1.3 1.3 0 0 1-.27-.723c-.016-.276.057-.57.156-.811q.145-.36.425-.544a19 19 0 0 1 4.595-2.489c1.581-.606 3.252-1.052 4.923-1.204 1.303-.125 2.646-.17 3.924-.259a77 77 0 0 1 3.857-.17c2.261-.026 4.563.197 6.709.821 2.113.616 4.202 1.552 6.192 2.703.229.107.459.259.557.41.098.17.131.473.131.75 0 .222-.082.463-.147.677a.86.86 0 0 1-.426.509 4.8 4.8 0 0 1-1.131.865 15 15 0 0 1-1.409.624c0 .348 0 .518-.008.865 3.596-.508 5.398-.758 8.994-1.24.606-.115 1.187-.285 1.687-.526a14 14 0 0 0 1.622-.936c1.065.651 2.113 1.4 3.129 2.23a19.7 19.7 0 0 1 2.842 2.854 8 8 0 0 1 1.245 2.132c.328.847.524 1.783.532 2.702.009.803-.245 1.57-.72 2.14a2.04 2.04 0 0 1-1.761.759c-2.957.58-4.44.874-7.397 1.48-.008.732-.016 1.097-.024 1.829a15 15 0 0 0 1.482-.696 17 17 0 0 0 1.483-.865 20.3 20.3 0 0 1 3.137 2.453 18 18 0 0 1 2.711 3.21c.418.536.672 1.169.688 1.82a4.6 4.6 0 0 1-.442 2.06 2.5 2.5 0 0 1-1.139 1.16c-.458.232-.942.321-1.409.151-2.653.34-3.98.518-6.626.875-.008.945-.016 1.418-.025 2.372.795.401 1.467 1.026 2.024 1.784.573.785.958 1.802 1.097 2.979.156 1.302-.049 2.533-.671 3.657-.623 1.124-1.434 1.81-2.417 2.069a19.7 19.7 0 0 1 4.694 3.291c1.449 1.356 2.752 2.935 3.915 4.727.467.714.786 1.588.893 2.551.098.901-.017 1.891-.312 2.899-.147.383-.352.883-.647 1.347-.246.383-.622.695-.999.91-.049 5.2-.074 7.768-.131 12.683a20.4 20.4 0 0 1-.762 4.709c-.442 1.57-1.073 3.023-1.892 4.29-.885 1.356-2.056 2.274-3.375 2.685-1.302.401-2.637.303-3.751-.322-1.245-.695-2.531-1.587-3.719-2.497a33 33 0 0 1-3.35-2.979c.115 2.078-.245 4.076-1.138 5.807-.901 1.739-2.31 3.032-3.874 3.915-1.131.633-2.343 1.124-3.621 1.347a8.4 8.4 0 0 1-3.661-.187 8.1 8.1 0 0 1-3.973-2.426c-1.056-1.178-1.875-2.712-2.318-4.612a5.6 5.6 0 0 0-.335-1.025c-.14-.322-.271-.678-.41-1.026.025 1.516-.278 3.015-.835 4.468-.549 1.427-1.327 2.712-2.302 3.764-.762.82-1.638 1.383-2.621 1.633a3.45 3.45 0 0 1-2.654-.348 9.6 9.6 0 0 1-3.587-3.247c-.967-1.463-1.655-3.282-2.089-5.298.377-.58.655-1.23.868-1.873.213-.669.393-1.373.451-2.096-.009-1.23-.017-1.855-.025-3.104a54 54 0 0 1-2.859 9.16 42.6 42.6 0 0 1-4.3 8 5.4 5.4 0 0 1-1.621 1.437c-.549.32-1.131.5-1.68.454-.63-.053-1.236-.338-1.728-.722-.5-.383-1.007-.892-1.368-1.56-.589-1.125-.958-2.445-1.13-3.952-.164-1.436-.156-2.952 0-4.486a36 36 0 0 0 .074-5.709 24.8 24.8 0 0 0-.91-5.262c.615.018.918.036 1.532.054 1.573-6.36 2.613-12.924 3.178-19.578.574-6.725.705-13.441.328-19.997a327 327 0 0 1-1.868-1.73c.459-.785.688-1.168 1.147-1.944q-.972-.35-1.663-1.33c-.458-.66-.794-1.48-.95-2.408-.188-1.186-.18-2.452-.024-3.674.155-1.231.589-2.301 1.089-3.175.541-.946 1.106-2.016 1.646-2.953.533-.91 1.073-1.873 1.647-2.791l1.867 1.587A903 903 0 0 1 631.3 16.14c.025-1.757.041-2.622.066-4.325-.86-.348-1.294-.527-2.154-.874zm-.802 21.826c.925-.223 1.392-.33 2.318-.544.041-.883.057-1.32.098-2.195-1.597.25-2.4.384-3.997.634.631.838.95 1.257 1.581 2.105Zm3.325 23.44c-.63-.277-1.31-.857-1.728-1.535-.385-.624-.631-1.463-.811-2.265a9.2 9.2 0 0 1-.172-2.64 5.6 5.6 0 0 1 .516-1.99 6 6 0 0 1 1.073-1.525c-.008-1.257-.016-1.89-.024-3.148-.762.143-1.139.223-1.893.366 0 2.988-.008 6.029-.122 9.008-.107 2.997-.361 6.047-.68 9.07.524-.945 1.196-1.8 1.851-2.568.663-.767 1.351-1.516 2.056-2.07.974.42 1.466.625 2.441 1.035 2.531-.615 3.8-.91 6.331-1.498.008-.758.016-1.142.025-1.9-2.679.633-4.014.964-6.684 1.624-.754.285-1.524.33-2.171.035zm6.356 27.194c.565-.152 1.081-.509 1.491-1.07.385-.527.606-1.231.663-2.052.058-3.808.082-5.762.14-9.722-.844.188-1.27.286-2.113.482-.074 5.066-.107 7.563-.173 12.37zm8.379-54.14c2.335-.428 3.506-.633 5.841-1.043.04-.83.057-1.249.098-2.078-2.359.365-3.547.553-5.906.927-.008.874-.016 1.32-.033 2.195Zm-.172 12.96c2.335-.49 3.506-.731 5.849-1.204.041-.9.057-1.347.098-2.239-2.367.464-3.547.705-5.914 1.187-.008.9-.016 1.355-.033 2.265zm11.55 10.114c1.916-.392 2.883-.588 4.799-.963.467.09.869-.09 1.204-.473.361-.41.623-.936.721-1.587-2.711.544-4.071.82-6.782 1.382.017.66.033.981.049 1.641zm-.336 21.219c.647-.152.974-.223 1.63-.375.032-2.836.049-4.272.09-7.18-.647.143-.975.215-1.63.357-.033 2.917-.058 4.353-.09 7.198Z" mask="url(#b)"/>
    <mask id="c" width="79" height="93" x="672.848" y=".755" fill="#000" maskUnits="userSpaceOnUse">
        <path fill="#fff" d="M672.848.755h79v93h-79z"/>
        <path d="M680.667 24.533c1.048-1.695 1.99-3.514 2.858-5.28.86-1.748 1.737-3.568 2.506-5.423-.802-1.641-1.204-2.444-1.998-4.04a272 272 0 0 1 5.283-3.38c.565-.366 1.196-.598 1.827-.625.63-.027 1.261.152 1.818.464a21 21 0 0 1 3.768 2.595 21.7 21.7 0 0 1 3.211 3.47c1.015-.598 1.523-.892 2.53-1.48.467-.268.934-.384 1.409-.33.467.053.926.213 1.335.48.467.313.852.786 1.123 1.383.237.535.327 1.15.278 1.82-.008 4.986-.016 7.608-.025 12.96.541-.108.803-.161 1.344-.277.123-7.153.188-10.65.311-17.098-.754-.74-1.139-1.106-1.892-1.829.328-.58.745-1.07 1.269-1.489.517-.41 1.131-.696 1.68-.928.581-.24 1.261-.463 1.965-.463q1.047 0 1.958.454c1.433.92 2.146 1.392 3.579 2.337.14.107.271.241.353.393.098.187.139.392.139.553a1.9 1.9 0 0 1-.213.562.7.7 0 0 1-.352.32c-.254.099-.377.143-.631.242-.025.767-.041 1.159-.066 1.944a745 745 0 0 1 3.645-2.016c1.712.678 2.572 1.017 4.284 1.713.238.107.492.312.639.57.156.277.18.634.147.91a1.67 1.67 0 0 1-.417.91c-.189.196-.418.33-.705.33-.106 2.569-.155 3.88-.254 6.556.836-2.132 1.704-4.273 2.507-6.369.794-2.078 1.572-4.2 2.359-6.26-.484-.607-.721-.902-1.196-1.5.983-.463 2.023-.918 3.08-1.24a19 19 0 0 1 3.358-.686 4.7 4.7 0 0 1 1.54.08 6.3 6.3 0 0 1 1.548.544 21.3 21.3 0 0 1 4.513 3.336c1.368 1.33 2.596 2.872 3.694 4.567.188.285.311.624.36 1.017a2.5 2.5 0 0 1-.057 1.016 2.7 2.7 0 0 1-.409.848c-.189.258-.435.508-.697.588-.426.134-.917.223-1.335.321a5 5 0 0 1-1.335.152 148 148 0 0 1-2.703 5.191 384 384 0 0 1-2.85 5.12c1.327-.33 1.982-.5 3.309-.83.59-.74.876-1.115 1.466-1.855a7 7 0 0 1 1.704 1.837c.475.732.86 1.534 1.146 2.39.533 1.776 1.024 3.622 1.385 5.468.36 1.837.581 3.8.753 5.708.09.99.066 2.007-.114 2.997-.172.928-.451 1.82-.828 2.587-.262.544-.655.883-1.122.98-.516.108-.991-.044-1.417-.436l-.86-1.16c-.59.054-.893.072-1.483.125 1.18.607 2.302 1.41 3.277 2.39.999 1.017 1.884 2.221 2.645 3.515.148.32.238.695.222 1.043-.017.348-.14.714-.271 1.017-.139.303-.327.508-.557.624-.237.116-.491.098-.778-.044-.458 1.846-.991 3.692-1.515 5.494-.524 1.784-1.081 3.523-1.737 5.128.574.946 1.147 1.856 1.729 2.65.548.758 1.196 1.525 1.867 2.292.623-.134.934-.197 1.557-.33a22 22 0 0 0-.32 3.995q.012 1.956.393 4.059c.287 1.578.385 3.184.262 4.79s-.467 3.076-1.024 4.423c-.327.776-.892 1.231-1.621 1.445a3.1 3.1 0 0 1-2.212-.196 6.8 6.8 0 0 1-1.72-1.177c-.5-.473-1.007-1.008-1.441-1.633-.721-1.186-1.417-2.426-2.097-3.585-.68-1.142-1.467-2.32-2.236-3.488-.615 1.097-1.344 2.141-2.122 3.14-.762.972-1.54 1.971-2.342 2.81a10.2 10.2 0 0 1-2.572 1.944c-1 .535-2.089.767-3.08.892-.459.053-.95.08-1.368-.045-.467-.142-.827-.544-1.081-.892-.303-.419-.68-.954-.795-1.525-.114-.553-.024-1.16.14-1.677.155-.5.237-1.106.278-1.703.049-.598.041-1.178 0-1.73-1.245.856-2.547 1.632-3.8 2.39-1.229.749-2.54 1.534-3.883 2.22-.229.794-.344 1.187-.573 1.972-.238.517-.606.865-1.081 1.008-.525.16-1.049.035-1.516-.223a4.2 4.2 0 0 1-1.155-.928c-.36-.41-.72-.856-1.007-1.329a25.4 25.4 0 0 1-1.36-3.612 36 36 0 0 1-.925-3.889 30 30 0 0 1-2.163 5.182 22.6 22.6 0 0 1-3.104 4.478c-.434.481-.983.758-1.581.767-.647 0-1.278-.26-1.646-.705-.434-.526-.811-1.284-1.065-2.007-.246-.704-.377-1.507-.418-2.319a12.4 12.4 0 0 1-1.024 3.113 8.4 8.4 0 0 1-1.875 2.542 4.56 4.56 0 0 1-2.654 1.177c-.934.09-1.818-.187-2.572-.82a10.3 10.3 0 0 1-2.334-2.828c-.631-1.123-1.147-2.39-1.393-3.737-.196-1.07-.401-2.212-.688-3.318-.27-1.052-.549-2.158-.827-3.3a321 321 0 0 0 1.728-2.845c.082-3.006.123-4.54.205-7.644-.811.66-1.663.83-2.564.526s-1.613-1.097-1.826-2.167c-.197-.99-.213-2.23-.254-3.398s.049-2.4.098-3.541c.057-1.186.025-2.55-.041-3.835-.057-1.285-.213-2.614-.393-3.925.54.045.803.072 1.343.116a26 26 0 0 0 2.146-3.193c.631-1.124 1.196-2.328 1.728-3.532-.761.714-1.605.865-2.473.571-.86-.294-1.581-.999-1.892-2.07-.254-.873-.385-1.917-.467-2.97-.082-1.052-.025-2.149.024-3.157.082-1.462-.065-3.14-.237-4.771a36 36 0 0 0-.803-4.594l1.827.134zm16.529 4.326c.655.687 1.286 1.516 1.892 2.408.344-.91.516-1.365.86-2.265.016-3.274.016-4.888.032-8.054-.876.356-1.31.535-2.186.892a18 18 0 0 1-1.213 2.657c-.483.875-.999 1.73-1.564 2.516a15.3 15.3 0 0 1 2.179 1.846m1.736 39.628c.483-1.597.68-3.31.59-5.111l-1.491-1.668c.655-.633.983-.954 1.646-1.596-.516-.83-.942-1.686-1.195-2.525-.295-.945-.418-1.97-.41-3.014-.541.57-.811.856-1.36 1.418-.032 6.984-.049 10.462-.082 17.045 1.008-1.312 1.786-2.828 2.302-4.558zm-.811-25.652a28 28 0 0 0-.786 1.686c.327.669.712 1.347 1.122 2.007.377.606.754 1.248 1.13 1.917.287-.562.582-1.088.86-1.587.238-.428.525-.874.852-1.311a11.6 11.6 0 0 1-1.482-1.91c-.426-.704-.754-1.551-.983-2.47a21 21 0 0 1-.713 1.677zm6.733 2.283a538 538 0 0 1 12.704-2.425c-.795-.598-1.196-.892-1.99-1.49-3.686.57-5.537.874-9.223 1.498-.598.964-.893 1.445-1.491 2.417m2.171 14.574c.376.544.696 1.178.925 1.891.188.598.238 1.285.213 1.98-.033 1.035-.057 2.06-.147 2.953-.107.998-.238 1.953-.434 2.827.597-.116.901-.17 1.507-.276.065-3.8.09-5.744.155-9.66-.884.116-1.327.178-2.211.294zm9.009-46.584c-.081 4.78-.114 7.296-.196 12.424.45-.107.68-.16 1.13-.259.082-4.638.115-6.903.197-11.256l-1.122-.91zm6.127 50a16.5 16.5 0 0 1-.573-2.176 34 34 0 0 1-.361-2.462c-.679.063-1.023.09-1.711.152.065 2.48.09 3.71.155 6.145.999-.66 1.499-.99 2.49-1.658m-1.548-19.64a24.5 24.5 0 0 1 1.999 3.818 25.6 25.6 0 0 1 1.359 4.272c.189-.49.484-.99.705-1.463.205-.428.377-1.008.565-1.56-.377 0-.721-.107-.991-.295-.328-.232-.598-.597-.787-1.034a13 13 0 0 1-.786-2.418 15 15 0 0 1-.36-2.408c-.68.437-1.016.651-1.696 1.08zm4.677 18.91c-.639.704-1.327 1.373-1.99 2.015 0 1.686.008 2.524.016 4.183.803-.865 1.605-1.846 2.416-2.774.705-.812 1.491-1.712 2.195-2.711-.344-1.169-.524-1.757-.868-2.935-.565.767-1.155 1.534-1.769 2.212zm-1.106-29.96c.393-.58.59-.866.983-1.436-.458-.732-.68-1.097-1.138-1.82.057 1.293.09 1.945.155 3.256m9.436 18.213c.361-1.66.541-2.489.893-4.148-.852.116-1.278.178-2.121.303l1.228 3.853z"/>
    </mask>
    <path fill="#000" d="M680.667 24.533c1.048-1.695 1.99-3.514 2.858-5.28.86-1.748 1.737-3.568 2.506-5.423-.802-1.641-1.204-2.444-1.998-4.04a272 272 0 0 1 5.283-3.38c.565-.366 1.196-.598 1.827-.625.63-.027 1.261.152 1.818.464a21 21 0 0 1 3.768 2.595 21.7 21.7 0 0 1 3.211 3.47c1.015-.598 1.523-.892 2.53-1.48.467-.268.934-.384 1.409-.33.467.053.926.213 1.335.48.467.313.852.786 1.123 1.383.237.535.327 1.15.278 1.82-.008 4.986-.016 7.608-.025 12.96.541-.108.803-.161 1.344-.277.123-7.153.188-10.65.311-17.098-.754-.74-1.139-1.106-1.892-1.829.328-.58.745-1.07 1.269-1.489.517-.41 1.131-.696 1.68-.928.581-.24 1.261-.463 1.965-.463q1.047 0 1.958.454c1.433.92 2.146 1.392 3.579 2.337.14.107.271.241.353.393.098.187.139.392.139.553a1.9 1.9 0 0 1-.213.562.7.7 0 0 1-.352.32c-.254.099-.377.143-.631.242-.025.767-.041 1.159-.066 1.944a745 745 0 0 1 3.645-2.016c1.712.678 2.572 1.017 4.284 1.713.238.107.492.312.639.57.156.277.18.634.147.91a1.67 1.67 0 0 1-.417.91c-.189.196-.418.33-.705.33-.106 2.569-.155 3.88-.254 6.556.836-2.132 1.704-4.273 2.507-6.369.794-2.078 1.572-4.2 2.359-6.26-.484-.607-.721-.902-1.196-1.5.983-.463 2.023-.918 3.08-1.24a19 19 0 0 1 3.358-.686 4.7 4.7 0 0 1 1.54.08 6.3 6.3 0 0 1 1.548.544 21.3 21.3 0 0 1 4.513 3.336c1.368 1.33 2.596 2.872 3.694 4.567.188.285.311.624.36 1.017a2.5 2.5 0 0 1-.057 1.016 2.7 2.7 0 0 1-.409.848c-.189.258-.435.508-.697.588-.426.134-.917.223-1.335.321a5 5 0 0 1-1.335.152 148 148 0 0 1-2.703 5.191 384 384 0 0 1-2.85 5.12c1.327-.33 1.982-.5 3.309-.83.59-.74.876-1.115 1.466-1.855a7 7 0 0 1 1.704 1.837c.475.732.86 1.534 1.146 2.39.533 1.776 1.024 3.622 1.385 5.468.36 1.837.581 3.8.753 5.708.09.99.066 2.007-.114 2.997-.172.928-.451 1.82-.828 2.587-.262.544-.655.883-1.122.98-.516.108-.991-.044-1.417-.436l-.86-1.16c-.59.054-.893.072-1.483.125 1.18.607 2.302 1.41 3.277 2.39.999 1.017 1.884 2.221 2.645 3.515.148.32.238.695.222 1.043-.017.348-.14.714-.271 1.017-.139.303-.327.508-.557.624-.237.116-.491.098-.778-.044-.458 1.846-.991 3.692-1.515 5.494-.524 1.784-1.081 3.523-1.737 5.128.574.946 1.147 1.856 1.729 2.65.548.758 1.196 1.525 1.867 2.292.623-.134.934-.197 1.557-.33a22 22 0 0 0-.32 3.995q.012 1.956.393 4.059c.287 1.578.385 3.184.262 4.79s-.467 3.076-1.024 4.423c-.327.776-.892 1.231-1.621 1.445a3.1 3.1 0 0 1-2.212-.196 6.8 6.8 0 0 1-1.72-1.177c-.5-.473-1.007-1.008-1.441-1.633-.721-1.186-1.417-2.426-2.097-3.585-.68-1.142-1.467-2.32-2.236-3.488-.615 1.097-1.344 2.141-2.122 3.14-.762.972-1.54 1.971-2.342 2.81a10.2 10.2 0 0 1-2.572 1.944c-1 .535-2.089.767-3.08.892-.459.053-.95.08-1.368-.045-.467-.142-.827-.544-1.081-.892-.303-.419-.68-.954-.795-1.525-.114-.553-.024-1.16.14-1.677.155-.5.237-1.106.278-1.703.049-.598.041-1.178 0-1.73-1.245.856-2.547 1.632-3.8 2.39-1.229.749-2.54 1.534-3.883 2.22-.229.794-.344 1.187-.573 1.972-.238.517-.606.865-1.081 1.008-.525.16-1.049.035-1.516-.223a4.2 4.2 0 0 1-1.155-.928c-.36-.41-.72-.856-1.007-1.329a25.4 25.4 0 0 1-1.36-3.612 36 36 0 0 1-.925-3.889 30 30 0 0 1-2.163 5.182 22.6 22.6 0 0 1-3.104 4.478c-.434.481-.983.758-1.581.767-.647 0-1.278-.26-1.646-.705-.434-.526-.811-1.284-1.065-2.007-.246-.704-.377-1.507-.418-2.319a12.4 12.4 0 0 1-1.024 3.113 8.4 8.4 0 0 1-1.875 2.542 4.56 4.56 0 0 1-2.654 1.177c-.934.09-1.818-.187-2.572-.82a10.3 10.3 0 0 1-2.334-2.828c-.631-1.123-1.147-2.39-1.393-3.737-.196-1.07-.401-2.212-.688-3.318-.27-1.052-.549-2.158-.827-3.3a321 321 0 0 0 1.728-2.845c.082-3.006.123-4.54.205-7.644-.811.66-1.663.83-2.564.526s-1.613-1.097-1.826-2.167c-.197-.99-.213-2.23-.254-3.398s.049-2.4.098-3.541c.057-1.186.025-2.55-.041-3.835-.057-1.285-.213-2.614-.393-3.925.54.045.803.072 1.343.116a26 26 0 0 0 2.146-3.193c.631-1.124 1.196-2.328 1.728-3.532-.761.714-1.605.865-2.473.571-.86-.294-1.581-.999-1.892-2.07-.254-.873-.385-1.917-.467-2.97-.082-1.052-.025-2.149.024-3.157.082-1.462-.065-3.14-.237-4.771a36 36 0 0 0-.803-4.594l1.827.134zm16.529 4.326c.655.687 1.286 1.516 1.892 2.408.344-.91.516-1.365.86-2.265.016-3.274.016-4.888.032-8.054-.876.356-1.31.535-2.186.892a18 18 0 0 1-1.213 2.657c-.483.875-.999 1.73-1.564 2.516a15.3 15.3 0 0 1 2.179 1.846m1.736 39.628c.483-1.597.68-3.31.59-5.111l-1.491-1.668c.655-.633.983-.954 1.646-1.596-.516-.83-.942-1.686-1.195-2.525-.295-.945-.418-1.97-.41-3.014-.541.57-.811.856-1.36 1.418-.032 6.984-.049 10.462-.082 17.045 1.008-1.312 1.786-2.828 2.302-4.558zm-.811-25.652a28 28 0 0 0-.786 1.686c.327.669.712 1.347 1.122 2.007.377.606.754 1.248 1.13 1.917.287-.562.582-1.088.86-1.587.238-.428.525-.874.852-1.311a11.6 11.6 0 0 1-1.482-1.91c-.426-.704-.754-1.551-.983-2.47a21 21 0 0 1-.713 1.677zm6.733 2.283a538 538 0 0 1 12.704-2.425c-.795-.598-1.196-.892-1.99-1.49-3.686.57-5.537.874-9.223 1.498-.598.964-.893 1.445-1.491 2.417m2.171 14.574c.376.544.696 1.178.925 1.891.188.598.238 1.285.213 1.98-.033 1.035-.057 2.06-.147 2.953-.107.998-.238 1.953-.434 2.827.597-.116.901-.17 1.507-.276.065-3.8.09-5.744.155-9.66-.884.116-1.327.178-2.211.294zm9.009-46.584c-.081 4.78-.114 7.296-.196 12.424.45-.107.68-.16 1.13-.259.082-4.638.115-6.903.197-11.256l-1.122-.91zm6.127 50a16.5 16.5 0 0 1-.573-2.176 34 34 0 0 1-.361-2.462c-.679.063-1.023.09-1.711.152.065 2.48.09 3.71.155 6.145.999-.66 1.499-.99 2.49-1.658m-1.548-19.64a24.5 24.5 0 0 1 1.999 3.818 25.6 25.6 0 0 1 1.359 4.272c.189-.49.484-.99.705-1.463.205-.428.377-1.008.565-1.56-.377 0-.721-.107-.991-.295-.328-.232-.598-.597-.787-1.034a13 13 0 0 1-.786-2.418 15 15 0 0 1-.36-2.408c-.68.437-1.016.651-1.696 1.08zm4.677 18.91c-.639.704-1.327 1.373-1.99 2.015 0 1.686.008 2.524.016 4.183.803-.865 1.605-1.846 2.416-2.774.705-.812 1.491-1.712 2.195-2.711-.344-1.169-.524-1.757-.868-2.935-.565.767-1.155 1.534-1.769 2.212zm-1.106-29.96c.393-.58.59-.866.983-1.436-.458-.732-.68-1.097-1.138-1.82.057 1.293.09 1.945.155 3.256m9.436 18.213c.361-1.66.541-2.489.893-4.148-.852.116-1.278.178-2.121.303l1.228 3.853z"/>
    <path stroke="#f3f0e6" stroke-width="8" d="M680.667 24.533c1.048-1.695 1.99-3.514 2.858-5.28.86-1.748 1.737-3.568 2.506-5.423-.802-1.641-1.204-2.444-1.998-4.04a272 272 0 0 1 5.283-3.38c.565-.366 1.196-.598 1.827-.625.63-.027 1.261.152 1.818.464a21 21 0 0 1 3.768 2.595 21.7 21.7 0 0 1 3.211 3.47c1.015-.598 1.523-.892 2.53-1.48.467-.268.934-.384 1.409-.33.467.053.926.213 1.335.48.467.313.852.786 1.123 1.383.237.535.327 1.15.278 1.82-.008 4.986-.016 7.608-.025 12.96.541-.108.803-.161 1.344-.277.123-7.153.188-10.65.311-17.098-.754-.74-1.139-1.106-1.892-1.829.328-.58.745-1.07 1.269-1.489.517-.41 1.131-.696 1.68-.928.581-.24 1.261-.463 1.965-.463q1.047 0 1.958.454c1.433.92 2.146 1.392 3.579 2.337.14.107.271.241.353.393.098.187.139.392.139.553a1.9 1.9 0 0 1-.213.562.7.7 0 0 1-.352.32c-.254.099-.377.143-.631.242-.025.767-.041 1.159-.066 1.944a745 745 0 0 1 3.645-2.016c1.712.678 2.572 1.017 4.284 1.713.238.107.492.312.639.57.156.277.18.634.147.91a1.67 1.67 0 0 1-.417.91c-.189.196-.418.33-.705.33-.106 2.569-.155 3.88-.254 6.556.836-2.132 1.704-4.273 2.507-6.369.794-2.078 1.572-4.2 2.359-6.26-.484-.607-.721-.902-1.196-1.5.983-.463 2.023-.918 3.08-1.24a19 19 0 0 1 3.358-.686 4.7 4.7 0 0 1 1.54.08 6.3 6.3 0 0 1 1.548.544 21.3 21.3 0 0 1 4.513 3.336c1.368 1.33 2.596 2.872 3.694 4.567.188.285.311.624.36 1.017a2.5 2.5 0 0 1-.057 1.016 2.7 2.7 0 0 1-.409.848c-.189.258-.435.508-.697.588-.426.134-.917.223-1.335.321a5 5 0 0 1-1.335.152 148 148 0 0 1-2.703 5.191 384 384 0 0 1-2.85 5.12c1.327-.33 1.982-.5 3.309-.83.59-.74.876-1.115 1.466-1.855a7 7 0 0 1 1.704 1.837c.475.732.86 1.534 1.146 2.39.533 1.776 1.024 3.622 1.385 5.468.36 1.837.581 3.8.753 5.708.09.99.066 2.007-.114 2.997-.172.928-.451 1.82-.828 2.587-.262.544-.655.883-1.122.98-.516.108-.991-.044-1.417-.436l-.86-1.16c-.59.054-.893.072-1.483.125 1.18.607 2.302 1.41 3.277 2.39.999 1.017 1.884 2.221 2.645 3.515.148.32.238.695.222 1.043-.017.348-.14.714-.271 1.017-.139.303-.327.508-.557.624-.237.116-.491.098-.778-.044-.458 1.846-.991 3.692-1.515 5.494-.524 1.784-1.081 3.523-1.737 5.128.574.946 1.147 1.856 1.729 2.65.548.758 1.196 1.525 1.867 2.292.623-.134.934-.197 1.557-.33a22 22 0 0 0-.32 3.995q.012 1.956.393 4.059c.287 1.578.385 3.184.262 4.79s-.467 3.076-1.024 4.423c-.327.776-.892 1.231-1.621 1.445a3.1 3.1 0 0 1-2.212-.196 6.8 6.8 0 0 1-1.72-1.177c-.5-.473-1.007-1.008-1.441-1.633-.721-1.186-1.417-2.426-2.097-3.585-.68-1.142-1.467-2.32-2.236-3.488-.615 1.097-1.344 2.141-2.122 3.14-.762.972-1.54 1.971-2.342 2.81a10.2 10.2 0 0 1-2.572 1.944c-1 .535-2.089.767-3.08.892-.459.053-.95.08-1.368-.045-.467-.142-.827-.544-1.081-.892-.303-.419-.68-.954-.795-1.525-.114-.553-.024-1.16.14-1.677.155-.5.237-1.106.278-1.703.049-.598.041-1.178 0-1.73-1.245.856-2.547 1.632-3.8 2.39-1.229.749-2.54 1.534-3.883 2.22-.229.794-.344 1.187-.573 1.972-.238.517-.606.865-1.081 1.008-.525.16-1.049.035-1.516-.223a4.2 4.2 0 0 1-1.155-.928c-.36-.41-.72-.856-1.007-1.329a25.4 25.4 0 0 1-1.36-3.612 36 36 0 0 1-.925-3.889 30 30 0 0 1-2.163 5.182 22.6 22.6 0 0 1-3.104 4.478c-.434.481-.983.758-1.581.767-.647 0-1.278-.26-1.646-.705-.434-.526-.811-1.284-1.065-2.007-.246-.704-.377-1.507-.418-2.319a12.4 12.4 0 0 1-1.024 3.113 8.4 8.4 0 0 1-1.875 2.542 4.56 4.56 0 0 1-2.654 1.177c-.934.09-1.818-.187-2.572-.82a10.3 10.3 0 0 1-2.334-2.828c-.631-1.123-1.147-2.39-1.393-3.737-.196-1.07-.401-2.212-.688-3.318-.27-1.052-.549-2.158-.827-3.3a321 321 0 0 0 1.728-2.845c.082-3.006.123-4.54.205-7.644-.811.66-1.663.83-2.564.526s-1.613-1.097-1.826-2.167c-.197-.99-.213-2.23-.254-3.398s.049-2.4.098-3.541c.057-1.186.025-2.55-.041-3.835-.057-1.285-.213-2.614-.393-3.925.54.045.803.072 1.343.116a26 26 0 0 0 2.146-3.193c.631-1.124 1.196-2.328 1.728-3.532-.761.714-1.605.865-2.473.571-.86-.294-1.581-.999-1.892-2.07-.254-.873-.385-1.917-.467-2.97-.082-1.052-.025-2.149.024-3.157.082-1.462-.065-3.14-.237-4.771a36 36 0 0 0-.803-4.594l1.827.134zm16.529 4.326c.655.687 1.286 1.516 1.892 2.408.344-.91.516-1.365.86-2.265.016-3.274.016-4.888.032-8.054-.876.356-1.31.535-2.186.892a18 18 0 0 1-1.213 2.657c-.483.875-.999 1.73-1.564 2.516a15.3 15.3 0 0 1 2.179 1.846Zm1.736 39.628c.483-1.597.68-3.31.59-5.111l-1.491-1.668c.655-.633.983-.954 1.646-1.596-.516-.83-.942-1.686-1.195-2.525-.295-.945-.418-1.97-.41-3.014-.541.57-.811.856-1.36 1.418-.032 6.984-.049 10.462-.082 17.045 1.008-1.312 1.786-2.828 2.302-4.558zm-.811-25.652a28 28 0 0 0-.786 1.686c.327.669.712 1.347 1.122 2.007.377.606.754 1.248 1.13 1.917.287-.562.582-1.088.86-1.587.238-.428.525-.874.852-1.311a11.6 11.6 0 0 1-1.482-1.91c-.426-.704-.754-1.551-.983-2.47a21 21 0 0 1-.713 1.677zm6.733 2.283a538 538 0 0 1 12.704-2.425c-.795-.598-1.196-.892-1.99-1.49-3.686.57-5.537.874-9.223 1.498-.598.964-.893 1.445-1.491 2.417Zm2.171 14.574c.376.544.696 1.178.925 1.891.188.598.238 1.285.213 1.98-.033 1.035-.057 2.06-.147 2.953-.107.998-.238 1.953-.434 2.827.597-.116.901-.17 1.507-.276.065-3.8.09-5.744.155-9.66-.884.116-1.327.178-2.211.294zm9.009-46.584c-.081 4.78-.114 7.296-.196 12.424.45-.107.68-.16 1.13-.259.082-4.638.115-6.903.197-11.256l-1.122-.91zm6.127 50a16.5 16.5 0 0 1-.573-2.176 34 34 0 0 1-.361-2.462c-.679.063-1.023.09-1.711.152.065 2.48.09 3.71.155 6.145.999-.66 1.499-.99 2.49-1.658Zm-1.548-19.64a24.5 24.5 0 0 1 1.999 3.818 25.6 25.6 0 0 1 1.359 4.272c.189-.49.484-.99.705-1.463.205-.428.377-1.008.565-1.56-.377 0-.721-.107-.991-.295-.328-.232-.598-.597-.787-1.034a13 13 0 0 1-.786-2.418 15 15 0 0 1-.36-2.408c-.68.437-1.016.651-1.696 1.08zm4.677 18.91c-.639.704-1.327 1.373-1.99 2.015 0 1.686.008 2.524.016 4.183.803-.865 1.605-1.846 2.416-2.774.705-.812 1.491-1.712 2.195-2.711-.344-1.169-.524-1.757-.868-2.935-.565.767-1.155 1.534-1.769 2.212zm-1.106-29.96c.393-.58.59-.866.983-1.436-.458-.732-.68-1.097-1.138-1.82.057 1.293.09 1.945.155 3.256Zm9.436 18.213c.361-1.66.541-2.489.893-4.148-.852.116-1.278.178-2.121.303l1.228 3.853z" mask="url(#c)"/>
    <mask id="d" width="75" height="93" x="743.614" y="1.718" fill="#000" maskUnits="userSpaceOnUse">
        <path fill="#fff" d="M743.614 1.718h75v93h-75z"/>
        <path d="M756.825 18.861c5.078-.268 7.617-.401 12.695-.66l-.041-3.033a324 324 0 0 0-5.012-2.452c-.377-.116-.68-.437-.926-.874-.221-.393-.393-.892-.368-1.365.016-.366.229-.785.475-1.177.229-.357.524-.607.901-.66 1.859-.651 3.759-1.222 5.651-1.624 1.835-.392 3.793-.669 5.66-.972 1.147-.187 2.334-.357 3.424-.32 1.147.026 2.318.204 3.44.436a949 949 0 0 1 13.974 2.007c.704.125 1.425.321 1.974.642.499.303 1.04.82 1.564 1.374.237.187.459.508.573.927.115.402.123.865.09 1.293a2.34 2.34 0 0 1-.475 1.196c-.188.258-.458.517-.827.633-.696.357-1.482.687-2.302.874-.802.187-1.63.268-2.375.312.008.633.016.954.025 1.588 3.194-.205 4.783-.312 7.978-.518.63-.856.95-1.284 1.58-2.14 1.876.803 3.596 2.051 5.161 3.701 1.589 1.677 2.989 3.684 4.136 6.03a4.6 4.6 0 0 1 .516 1.846 4.4 4.4 0 0 1-.328 1.82c-.188.454-.376.927-.614 1.293-.246.383-.549.749-.827 1.079a5 5 0 0 1-1.663 1.026c-.541.196-1.163.339-1.81.294-1.343.08-2.015.116-3.358.187 1.228 1.026 2.408 2.203 3.538 3.425a45 45 0 0 1 3.268 3.898c.287.303.5.669.639 1.106.147.428.172.919.156 1.382a4.5 4.5 0 0 1-.262 1.347c-.148.384-.336.74-.615 1-.557.436-1.146.846-1.728 1.096-.565.241-1.229.34-1.884.348l-3.915.045a73 73 0 0 1 4.054 5.422 61 61 0 0 1 3.637 6.119c.762 1.293 1.106 2.818 1.106 4.477 0 1.606-.361 2.944-1.139 3.96a4.1 4.1 0 0 1-1.032 1.008 2.07 2.07 0 0 1-1.114.366c.058 4.549.09 6.814.148 11.238a14.4 14.4 0 0 1-.238 2.881 9 9 0 0 1-.803 2.346c-.45.91-.95 1.73-1.498 2.381-.566.67-1.311 1.169-1.999 1.561-.541.303-1.163.624-1.802.812-.549.151-1.196.178-1.884.116a11.2 11.2 0 0 1-3.014-.651 9.5 9.5 0 0 1-2.818-1.633 10.2 10.2 0 0 1-1.63-1.409 14 14 0 0 1-1.425-1.748c-7.462-.954-11.213-1.391-18.716-2.167-1.368 2.827-3.17 5.066-5.34 6.796a16.1 16.1 0 0 1-7.241 3.282 7.26 7.26 0 0 1-3.899-.125c-1.368-.419-2.645-1.168-3.792-2.167a4.8 4.8 0 0 1-1.442-1.962 6.2 6.2 0 0 1-.45-2.373c.008-1.141.147-2.345.246-3.451.106-1.16.303-2.39.532-3.506.156-.767.123-1.632-.025-2.48a8.8 8.8 0 0 0-.802-2.496c.811.374 1.679.463 2.342.133.713-.357 1.344-1.186 1.679-2.114.525-1.471.893-3.103 1.147-4.691.27-1.641.434-3.39.508-5.209-.852-.134-1.679-.437-2.343-.945-.655-.5-1.261-1.302-1.793-2.212a4.83 4.83 0 0 1-.664-2.408q-.01-1.325.68-2.221c.835-1.267 1.712-2.542 2.646-3.621.925-1.08 1.998-2.06 3.071-2.953-1.687.08-2.539.125-4.226.206a4.04 4.04 0 0 1-1.909-.402c-.696-.33-1.302-.865-1.777-1.525-.336-.392-.615-.883-.86-1.365-.262-.508-.484-1.132-.656-1.73a3.2 3.2 0 0 1-.081-1.32c.065-.464.18-.963.409-1.391.696-1.16 1.483-2.177 2.367-2.988a13.2 13.2 0 0 1 2.933-2.025c-.762.045-1.139.063-1.901.107a5.8 5.8 0 0 1-1.761-.357c-.606-.214-1.179-.57-1.703-.999a5 5 0 0 1-1.065-1.24c-.262-.436-.483-1.016-.647-1.587-.197-.651-.361-1.41-.303-2.114a4.6 4.6 0 0 1 .679-2.06 26 26 0 0 1 2.703-3.693 24 24 0 0 1 3.195-3.023c.647.294.975.446 1.622.74m3.063 16.099c3.94-.143 5.906-.214 9.837-.33-.008-.767-.016-1.15-.024-1.909-4.555.098-6.832.16-11.386.286.631.776.942 1.168 1.573 1.962zm9.567 11.729c8.076 0 16.144.071 24.22.187a3.1 3.1 0 0 0 1.745-.348q.835-.428 1.523-1.284c-9.968-.027-19.928-.01-29.896.107.966.535 1.441.803 2.408 1.338m7.15 20.023c.787.054 1.18.08 1.974.143-.032-2.319-.049-3.487-.073-5.842-.787-.045-1.18-.072-1.974-.116.033 2.346.049 3.505.073 5.815m14.056.705 1.966.267-.082-6.118-2.032-.045c.058 2.373.091 3.559.148 5.905zm4.521-33.456c2.883-.09 4.325-.134 7.208-.214l1.229-2.248c-3.383.152-5.079.223-8.461.366.008.838.016 1.258.032 2.096z"/>
    </mask>
    <path fill="#000" d="M756.825 18.861c5.078-.268 7.617-.401 12.695-.66l-.041-3.033a324 324 0 0 0-5.012-2.452c-.377-.116-.68-.437-.926-.874-.221-.393-.393-.892-.368-1.365.016-.366.229-.785.475-1.177.229-.357.524-.607.901-.66 1.859-.651 3.759-1.222 5.651-1.624 1.835-.392 3.793-.669 5.66-.972 1.147-.187 2.334-.357 3.424-.32 1.147.026 2.318.204 3.44.436a949 949 0 0 1 13.974 2.007c.704.125 1.425.321 1.974.642.499.303 1.04.82 1.564 1.374.237.187.459.508.573.927.115.402.123.865.09 1.293a2.34 2.34 0 0 1-.475 1.196c-.188.258-.458.517-.827.633-.696.357-1.482.687-2.302.874-.802.187-1.63.268-2.375.312.008.633.016.954.025 1.588 3.194-.205 4.783-.312 7.978-.518.63-.856.95-1.284 1.58-2.14 1.876.803 3.596 2.051 5.161 3.701 1.589 1.677 2.989 3.684 4.136 6.03a4.6 4.6 0 0 1 .516 1.846 4.4 4.4 0 0 1-.328 1.82c-.188.454-.376.927-.614 1.293-.246.383-.549.749-.827 1.079a5 5 0 0 1-1.663 1.026c-.541.196-1.163.339-1.81.294-1.343.08-2.015.116-3.358.187 1.228 1.026 2.408 2.203 3.538 3.425a45 45 0 0 1 3.268 3.898c.287.303.5.669.639 1.106.147.428.172.919.156 1.382a4.5 4.5 0 0 1-.262 1.347c-.148.384-.336.74-.615 1-.557.436-1.146.846-1.728 1.096-.565.241-1.229.34-1.884.348l-3.915.045a73 73 0 0 1 4.054 5.422 61 61 0 0 1 3.637 6.119c.762 1.293 1.106 2.818 1.106 4.477 0 1.606-.361 2.944-1.139 3.96a4.1 4.1 0 0 1-1.032 1.008 2.07 2.07 0 0 1-1.114.366c.058 4.549.09 6.814.148 11.238a14.4 14.4 0 0 1-.238 2.881 9 9 0 0 1-.803 2.346c-.45.91-.95 1.73-1.498 2.381-.566.67-1.311 1.169-1.999 1.561-.541.303-1.163.624-1.802.812-.549.151-1.196.178-1.884.116a11.2 11.2 0 0 1-3.014-.651 9.5 9.5 0 0 1-2.818-1.633 10.2 10.2 0 0 1-1.63-1.409 14 14 0 0 1-1.425-1.748c-7.462-.954-11.213-1.391-18.716-2.167-1.368 2.827-3.17 5.066-5.34 6.796a16.1 16.1 0 0 1-7.241 3.282 7.26 7.26 0 0 1-3.899-.125c-1.368-.419-2.645-1.168-3.792-2.167a4.8 4.8 0 0 1-1.442-1.962 6.2 6.2 0 0 1-.45-2.373c.008-1.141.147-2.345.246-3.451.106-1.16.303-2.39.532-3.506.156-.767.123-1.632-.025-2.48a8.8 8.8 0 0 0-.802-2.496c.811.374 1.679.463 2.342.133.713-.357 1.344-1.186 1.679-2.114.525-1.471.893-3.103 1.147-4.691.27-1.641.434-3.39.508-5.209-.852-.134-1.679-.437-2.343-.945-.655-.5-1.261-1.302-1.793-2.212a4.83 4.83 0 0 1-.664-2.408q-.01-1.325.68-2.221c.835-1.267 1.712-2.542 2.646-3.621.925-1.08 1.998-2.06 3.071-2.953-1.687.08-2.539.125-4.226.206a4.04 4.04 0 0 1-1.909-.402c-.696-.33-1.302-.865-1.777-1.525-.336-.392-.615-.883-.86-1.365-.262-.508-.484-1.132-.656-1.73a3.2 3.2 0 0 1-.081-1.32c.065-.464.18-.963.409-1.391.696-1.16 1.483-2.177 2.367-2.988a13.2 13.2 0 0 1 2.933-2.025c-.762.045-1.139.063-1.901.107a5.8 5.8 0 0 1-1.761-.357c-.606-.214-1.179-.57-1.703-.999a5 5 0 0 1-1.065-1.24c-.262-.436-.483-1.016-.647-1.587-.197-.651-.361-1.41-.303-2.114a4.6 4.6 0 0 1 .679-2.06 26 26 0 0 1 2.703-3.693 24 24 0 0 1 3.195-3.023c.647.294.975.446 1.622.74m3.063 16.099c3.94-.143 5.906-.214 9.837-.33-.008-.767-.016-1.15-.024-1.909-4.555.098-6.832.16-11.386.286.631.776.942 1.168 1.573 1.962zm9.567 11.729c8.076 0 16.144.071 24.22.187a3.1 3.1 0 0 0 1.745-.348q.835-.428 1.523-1.284c-9.968-.027-19.928-.01-29.896.107.966.535 1.441.803 2.408 1.338m7.15 20.023c.787.054 1.18.08 1.974.143-.032-2.319-.049-3.487-.073-5.842-.787-.045-1.18-.072-1.974-.116.033 2.346.049 3.505.073 5.815m14.056.705 1.966.267-.082-6.118-2.032-.045c.058 2.373.091 3.559.148 5.905zm4.521-33.456c2.883-.09 4.325-.134 7.208-.214l1.229-2.248c-3.383.152-5.079.223-8.461.366.008.838.016 1.258.032 2.096z"/>
    <path stroke="#f3f0e6" stroke-width="8" d="M756.825 18.861c5.078-.268 7.617-.401 12.695-.66l-.041-3.033a324 324 0 0 0-5.012-2.452c-.377-.116-.68-.437-.926-.874-.221-.393-.393-.892-.368-1.365.016-.366.229-.785.475-1.177.229-.357.524-.607.901-.66 1.859-.651 3.759-1.222 5.651-1.624 1.835-.392 3.793-.669 5.66-.972 1.147-.187 2.334-.357 3.424-.32 1.147.026 2.318.204 3.44.436a949 949 0 0 1 13.974 2.007c.704.125 1.425.321 1.974.642.499.303 1.04.82 1.564 1.374.237.187.459.508.573.927.115.402.123.865.09 1.293a2.34 2.34 0 0 1-.475 1.196c-.188.258-.458.517-.827.633-.696.357-1.482.687-2.302.874-.802.187-1.63.268-2.375.312.008.633.016.954.025 1.588 3.194-.205 4.783-.312 7.978-.518.63-.856.95-1.284 1.58-2.14 1.876.803 3.596 2.051 5.161 3.701 1.589 1.677 2.989 3.684 4.136 6.03a4.6 4.6 0 0 1 .516 1.846 4.4 4.4 0 0 1-.328 1.82c-.188.454-.376.927-.614 1.293-.246.383-.549.749-.827 1.079a5 5 0 0 1-1.663 1.026c-.541.196-1.163.339-1.81.294-1.343.08-2.015.116-3.358.187 1.228 1.026 2.408 2.203 3.538 3.425a45 45 0 0 1 3.268 3.898c.287.303.5.669.639 1.106.147.428.172.919.156 1.382a4.5 4.5 0 0 1-.262 1.347c-.148.384-.336.74-.615 1-.557.436-1.146.846-1.728 1.096-.565.241-1.229.34-1.884.348l-3.915.045a73 73 0 0 1 4.054 5.422 61 61 0 0 1 3.637 6.119c.762 1.293 1.106 2.818 1.106 4.477 0 1.606-.361 2.944-1.139 3.96a4.1 4.1 0 0 1-1.032 1.008 2.07 2.07 0 0 1-1.114.366c.058 4.549.09 6.814.148 11.238a14.4 14.4 0 0 1-.238 2.881 9 9 0 0 1-.803 2.346c-.45.91-.95 1.73-1.498 2.381-.566.67-1.311 1.169-1.999 1.561-.541.303-1.163.624-1.802.812-.549.151-1.196.178-1.884.116a11.2 11.2 0 0 1-3.014-.651 9.5 9.5 0 0 1-2.818-1.633 10.2 10.2 0 0 1-1.63-1.409 14 14 0 0 1-1.425-1.748c-7.462-.954-11.213-1.391-18.716-2.167-1.368 2.827-3.17 5.066-5.34 6.796a16.1 16.1 0 0 1-7.241 3.282 7.26 7.26 0 0 1-3.899-.125c-1.368-.419-2.645-1.168-3.792-2.167a4.8 4.8 0 0 1-1.442-1.962 6.2 6.2 0 0 1-.45-2.373c.008-1.141.147-2.345.246-3.451.106-1.16.303-2.39.532-3.506.156-.767.123-1.632-.025-2.48a8.8 8.8 0 0 0-.802-2.496c.811.374 1.679.463 2.342.133.713-.357 1.344-1.186 1.679-2.114.525-1.471.893-3.103 1.147-4.691.27-1.641.434-3.39.508-5.209-.852-.134-1.679-.437-2.343-.945-.655-.5-1.261-1.302-1.793-2.212a4.83 4.83 0 0 1-.664-2.408q-.01-1.325.68-2.221c.835-1.267 1.712-2.542 2.646-3.621.925-1.08 1.998-2.06 3.071-2.953-1.687.08-2.539.125-4.226.206a4.04 4.04 0 0 1-1.909-.402c-.696-.33-1.302-.865-1.777-1.525-.336-.392-.615-.883-.86-1.365-.262-.508-.484-1.132-.656-1.73a3.2 3.2 0 0 1-.081-1.32c.065-.464.18-.963.409-1.391.696-1.16 1.483-2.177 2.367-2.988a13.2 13.2 0 0 1 2.933-2.025c-.762.045-1.139.063-1.901.107a5.8 5.8 0 0 1-1.761-.357c-.606-.214-1.179-.57-1.703-.999a5 5 0 0 1-1.065-1.24c-.262-.436-.483-1.016-.647-1.587-.197-.651-.361-1.41-.303-2.114a4.6 4.6 0 0 1 .679-2.06 26 26 0 0 1 2.703-3.693 24 24 0 0 1 3.195-3.023c.647.294.975.446 1.622.74Zm3.063 16.099c3.94-.143 5.906-.214 9.837-.33-.008-.767-.016-1.15-.024-1.909-4.555.098-6.832.16-11.386.286.631.776.942 1.168 1.573 1.962zm9.567 11.729c8.076 0 16.144.071 24.22.187a3.1 3.1 0 0 0 1.745-.348q.835-.428 1.523-1.284c-9.968-.027-19.928-.01-29.896.107.966.535 1.441.803 2.408 1.338Zm7.15 20.023c.787.054 1.18.08 1.974.143-.032-2.319-.049-3.487-.073-5.842-.787-.045-1.18-.072-1.974-.116.033 2.346.049 3.505.073 5.815Zm14.056.705 1.966.267-.082-6.118-2.032-.045c.058 2.373.091 3.559.148 5.905zm4.521-33.456c2.883-.09 4.325-.134 7.208-.214l1.229-2.248c-3.383.152-5.079.223-8.461.366.008.838.016 1.258.032 2.096z" mask="url(#d)"/>
    <mask id="e" width="76" height="120" x="810.978" y=".572" fill="#000" maskUnits="userSpaceOnUse">
        <path fill="#fff" d="M810.978.572h76v120h-76z"/>
        <path d="M820.156 52.03c.385-.641.573-.971.958-1.623-.934-.606-1.589-1.587-1.99-2.898-.418-1.392-.459-2.738-.049-3.97.524-1.578 1.195-3.04 1.834-4.325.647-1.311 1.385-2.587 2.261-3.657-.745.16-1.45-.018-2.097-.473a5.66 5.66 0 0 1-1.769-2.024c-.434-.839-.803-1.784-1.007-2.685-.222-.945-.304-1.953-.32-2.916a27 27 0 0 0-.254-3.399 20 20 0 0 0-.745-3.264c.647.062.966.098 1.613.17 1.008-1.232 1.851-2.64 2.531-4.21a24 24 0 0 0 1.54-5.067 221 221 0 0 0-2.416-2.533c-.049-.383-.016-.731.123-1.034.172-.375.385-.625.622-.75.836-.365 1.704-.767 2.572-1.105.811-.322 1.704-.571 2.507-.839a9 9 0 0 1 1.605-.374 7.5 7.5 0 0 1 1.614 0c1.253.133 2.53.446 3.792.963a16 16 0 0 1 3.596 2.06q.637.495 1.064 1.392c.287.597.459 1.24.508 1.908 2.294-.16 3.44-.24 5.734-.41.467 0 .966-.116 1.466-.384.459-.25.901-.597 1.319-.999.565.482 1.155 1.035 1.761 1.561.573.5 1.171 1.088 1.695 1.793.303-.91.451-1.365.754-2.265a223 223 0 0 0-2.13-3.086c.606-.402 1.237-.874 1.876-1.294.614-.41 1.368-.749 2.023-1.097.549-.294 1.163-.535 1.818-.597.697-.072 1.352 0 1.966.205 1.548.473 3.105 1.16 4.636 1.953 1.507.785 3.039 1.722 4.497 2.872a1255 1255 0 0 0 7.97-1.41c.417-.062.827-.24 1.187-.525.418-.33.77-.785 1.049-1.276 1.31.937 2.522 2.194 3.645 3.71a25.6 25.6 0 0 1 2.94 5.183c.279.535.41 1.168.352 1.828-.073.74-.327 1.32-.696 1.695q-1.046 1.34-2.302 2.105c-.835.508-1.72.785-2.645.82.278.321.524.74.77 1.177.213.393.442.866.63 1.419q.075.238 0 .463-.002.35-.065.58-.072.23-.205.34a.5.5 0 0 1-.344.097 1.6 1.6 0 0 1-.622.09 2.2 2.2 0 0 1-.697-.152c-1.023 2.131-1.539 3.202-2.563 5.351 1.253 1.4 2.465 2.988 3.481 4.719 1.032 1.757 1.99 3.781 2.85 5.86.885 2.149 1.18 4.477.901 6.903s-1.032 4.272-2.277 5.539c-.344 16.161-.68 32.323-1.04 48.484-.041 2.417-.377 4.638-1.007 6.627-.631 1.998-1.565 3.594-2.638 4.825-1.04 1.187-2.293 1.748-3.669 1.65-1.377-.098-2.703-.838-3.891-2.194-1.245-1.418-2.425-3.148-3.44-5.119a30.5 30.5 0 0 1-2.433-6.431c-.409.339-.86.633-1.294.901-.401.25-.852.464-1.294.562a4.66 4.66 0 0 1-2.4-.116c-.827-.259-1.671-.669-2.343-1.267-.458-.41-.901-.972-1.318-1.561a6.9 6.9 0 0 1-.975-2.015c-1.237-.312-1.859-.473-3.104-.776-.222.793-.484 1.543-.803 2.131-.328.607-.77 1.142-1.221 1.588-1.228 1.159-2.645 1.391-4.259.758-1.654-.651-2.981-2.025-3.972-4.138a23.7 23.7 0 0 1-1.36-4.076 24 24 0 0 1-.598-4.282 14 14 0 0 1 .041-2.31c.09-.749.262-1.471.532-2.131-.024-2.4-.041-3.604-.065-6.048 0-.437-.188-.945-.434-1.49-.254-.57-.565-1.043-.983-1.257.024 7.412.033 11.06.057 18.026.025 2.051-.27 3.987-.835 5.753-.541 1.703-1.352 3.086-2.367 4.112-1.09 1.097-2.4 1.409-3.924.847-1.482-.544-2.711-1.73-3.579-3.559a40 40 0 0 1-2.302-6.154c-.598-2.105-1.056-4.335-1.409-6.6-.057-.607-.057-1.24.05-1.802a3.4 3.4 0 0 1 .606-1.4c.155-10.57.303-21.148.45-31.717-.647-.767-.974-1.15-1.63-1.917zm9.796-20.469c-.483-.83-.909-1.837-1.286-2.854-.712 1.142-1.073 1.713-1.786 2.863.992.955 1.483 1.445 2.474 2.417.95-.062 1.425-.089 2.367-.151-.663-.696-1.294-1.463-1.769-2.275m1.818-5.949c.508-.936.885-1.953 1.155-2.997-.475.018-.712.027-1.187.054-.32.892-.647 1.775-1.016 2.569-.377.811-.844 1.605-1.302 2.354l.63.357a11 11 0 0 0 1.72-2.337m28.676 26.553c.385-.527.574-.785.967-1.312a13.4 13.4 0 0 1 1.949 1.98c.656.821 1.229 1.758 1.745 2.694.049-2.23.066-3.354.115-5.583-5.079-.518-10.206-.678-15.26-.643-5.094.036-10.255.322-15.349.955.147.687.229 1.463.303 2.256.073.812.155 1.615.163 2.355.41-.847.885-1.605 1.434-2.283s1.171-1.133 1.859-1.356c.639.339.967.508 1.606.856 8.199.072 12.294.098 20.46.08zm-23.368 14.788c.688-.83 1.368-1.66 2.056-2.382-.647.063-1.343-.08-2.089-.41a8 8 0 0 1-2.023-1.285c.025 2.712.041 4.068.074 6.77.59-.936 1.278-1.837 1.982-2.693m18.888-.92c.549-.624.819-.936 1.368-1.56-6.438.009-9.665 0-16.128-.062.672.722 1.008 1.088 1.679 1.82 5.234-.054 7.855-.09 13.073-.197zm-11.729-35.381a13.7 13.7 0 0 1-1.859 2.185c2.113-.16 3.178-.25 5.291-.42-.336-.767-.639-1.498-.926-2.167-.319-.749-.639-1.471-.925-2.15-.508.848-1.024 1.731-1.581 2.543zm1.13-6.6c.549-.839.827-1.258 1.376-2.097-1.056.08-1.589.125-2.654.206.508.749.762 1.132 1.278 1.89m2.932 59.9c1.106.295 1.663.438 2.761.732a700 700 0 0 1-.033-4.38c-1.073 0-1.614-.008-2.695-.017l-.041 3.674zm13.147-51.864a9 9 0 0 1-1.057-2.346 22 22 0 0 1-.573-2.524c.467.026.942-.099 1.253-.384.319-.294.598-.83.827-1.427l.819-2.542-1.949.134c-.778 1.596-1.597 3.264-2.482 4.807-.868 1.517-1.835 3.015-2.752 4.46 2.367-.071 3.547-.107 5.914-.187zm3.628 31.172a3.1 3.1 0 0 1-1.171.794c-.41.17-.803.294-1.171.32-1.245.072-1.868.108-3.105.17a73 73 0 0 1 2.646 3.666 39 39 0 0 1 2.433 4.139zm-1.818 23.903c.573-.08.868-.116 1.441-.196l.041-5.556c-.491.151-.745.222-1.236.374z"/>
    </mask>
    <path fill="#000" d="M820.156 52.03c.385-.641.573-.971.958-1.623-.934-.606-1.589-1.587-1.99-2.898-.418-1.392-.459-2.738-.049-3.97.524-1.578 1.195-3.04 1.834-4.325.647-1.311 1.385-2.587 2.261-3.657-.745.16-1.45-.018-2.097-.473a5.66 5.66 0 0 1-1.769-2.024c-.434-.839-.803-1.784-1.007-2.685-.222-.945-.304-1.953-.32-2.916a27 27 0 0 0-.254-3.399 20 20 0 0 0-.745-3.264c.647.062.966.098 1.613.17 1.008-1.232 1.851-2.64 2.531-4.21a24 24 0 0 0 1.54-5.067 221 221 0 0 0-2.416-2.533c-.049-.383-.016-.731.123-1.034.172-.375.385-.625.622-.75.836-.365 1.704-.767 2.572-1.105.811-.322 1.704-.571 2.507-.839a9 9 0 0 1 1.605-.374 7.5 7.5 0 0 1 1.614 0c1.253.133 2.53.446 3.792.963a16 16 0 0 1 3.596 2.06q.637.495 1.064 1.392c.287.597.459 1.24.508 1.908 2.294-.16 3.44-.24 5.734-.41.467 0 .966-.116 1.466-.384.459-.25.901-.597 1.319-.999.565.482 1.155 1.035 1.761 1.561.573.5 1.171 1.088 1.695 1.793.303-.91.451-1.365.754-2.265a223 223 0 0 0-2.13-3.086c.606-.402 1.237-.874 1.876-1.294.614-.41 1.368-.749 2.023-1.097.549-.294 1.163-.535 1.818-.597.697-.072 1.352 0 1.966.205 1.548.473 3.105 1.16 4.636 1.953 1.507.785 3.039 1.722 4.497 2.872a1255 1255 0 0 0 7.97-1.41c.417-.062.827-.24 1.187-.525.418-.33.77-.785 1.049-1.276 1.31.937 2.522 2.194 3.645 3.71a25.6 25.6 0 0 1 2.94 5.183c.279.535.41 1.168.352 1.828-.073.74-.327 1.32-.696 1.695q-1.046 1.34-2.302 2.105c-.835.508-1.72.785-2.645.82.278.321.524.74.77 1.177.213.393.442.866.63 1.419q.075.238 0 .463-.002.35-.065.58-.072.23-.205.34a.5.5 0 0 1-.344.097 1.6 1.6 0 0 1-.622.09 2.2 2.2 0 0 1-.697-.152c-1.023 2.131-1.539 3.202-2.563 5.351 1.253 1.4 2.465 2.988 3.481 4.719 1.032 1.757 1.99 3.781 2.85 5.86.885 2.149 1.18 4.477.901 6.903s-1.032 4.272-2.277 5.539c-.344 16.161-.68 32.323-1.04 48.484-.041 2.417-.377 4.638-1.007 6.627-.631 1.998-1.565 3.594-2.638 4.825-1.04 1.187-2.293 1.748-3.669 1.65-1.377-.098-2.703-.838-3.891-2.194-1.245-1.418-2.425-3.148-3.44-5.119a30.5 30.5 0 0 1-2.433-6.431c-.409.339-.86.633-1.294.901-.401.25-.852.464-1.294.562a4.66 4.66 0 0 1-2.4-.116c-.827-.259-1.671-.669-2.343-1.267-.458-.41-.901-.972-1.318-1.561a6.9 6.9 0 0 1-.975-2.015c-1.237-.312-1.859-.473-3.104-.776-.222.793-.484 1.543-.803 2.131-.328.607-.77 1.142-1.221 1.588-1.228 1.159-2.645 1.391-4.259.758-1.654-.651-2.981-2.025-3.972-4.138a23.7 23.7 0 0 1-1.36-4.076 24 24 0 0 1-.598-4.282 14 14 0 0 1 .041-2.31c.09-.749.262-1.471.532-2.131-.024-2.4-.041-3.604-.065-6.048 0-.437-.188-.945-.434-1.49-.254-.57-.565-1.043-.983-1.257.024 7.412.033 11.06.057 18.026.025 2.051-.27 3.987-.835 5.753-.541 1.703-1.352 3.086-2.367 4.112-1.09 1.097-2.4 1.409-3.924.847-1.482-.544-2.711-1.73-3.579-3.559a40 40 0 0 1-2.302-6.154c-.598-2.105-1.056-4.335-1.409-6.6-.057-.607-.057-1.24.05-1.802a3.4 3.4 0 0 1 .606-1.4c.155-10.57.303-21.148.45-31.717-.647-.767-.974-1.15-1.63-1.917zm9.796-20.469c-.483-.83-.909-1.837-1.286-2.854-.712 1.142-1.073 1.713-1.786 2.863.992.955 1.483 1.445 2.474 2.417.95-.062 1.425-.089 2.367-.151-.663-.696-1.294-1.463-1.769-2.275m1.818-5.949c.508-.936.885-1.953 1.155-2.997-.475.018-.712.027-1.187.054-.32.892-.647 1.775-1.016 2.569-.377.811-.844 1.605-1.302 2.354l.63.357a11 11 0 0 0 1.72-2.337m28.676 26.553c.385-.527.574-.785.967-1.312a13.4 13.4 0 0 1 1.949 1.98c.656.821 1.229 1.758 1.745 2.694.049-2.23.066-3.354.115-5.583-5.079-.518-10.206-.678-15.26-.643-5.094.036-10.255.322-15.349.955.147.687.229 1.463.303 2.256.073.812.155 1.615.163 2.355.41-.847.885-1.605 1.434-2.283s1.171-1.133 1.859-1.356c.639.339.967.508 1.606.856 8.199.072 12.294.098 20.46.08zm-23.368 14.788c.688-.83 1.368-1.66 2.056-2.382-.647.063-1.343-.08-2.089-.41a8 8 0 0 1-2.023-1.285c.025 2.712.041 4.068.074 6.77.59-.936 1.278-1.837 1.982-2.693m18.888-.92c.549-.624.819-.936 1.368-1.56-6.438.009-9.665 0-16.128-.062.672.722 1.008 1.088 1.679 1.82 5.234-.054 7.855-.09 13.073-.197zm-11.729-35.381a13.7 13.7 0 0 1-1.859 2.185c2.113-.16 3.178-.25 5.291-.42-.336-.767-.639-1.498-.926-2.167-.319-.749-.639-1.471-.925-2.15-.508.848-1.024 1.731-1.581 2.543zm1.13-6.6c.549-.839.827-1.258 1.376-2.097-1.056.08-1.589.125-2.654.206.508.749.762 1.132 1.278 1.89m2.932 59.9c1.106.295 1.663.438 2.761.732a700 700 0 0 1-.033-4.38c-1.073 0-1.614-.008-2.695-.017l-.041 3.674zm13.147-51.864a9 9 0 0 1-1.057-2.346 22 22 0 0 1-.573-2.524c.467.026.942-.099 1.253-.384.319-.294.598-.83.827-1.427l.819-2.542-1.949.134c-.778 1.596-1.597 3.264-2.482 4.807-.868 1.517-1.835 3.015-2.752 4.46 2.367-.071 3.547-.107 5.914-.187zm3.628 31.172a3.1 3.1 0 0 1-1.171.794c-.41.17-.803.294-1.171.32-1.245.072-1.868.108-3.105.17a73 73 0 0 1 2.646 3.666 39 39 0 0 1 2.433 4.139zm-1.818 23.903c.573-.08.868-.116 1.441-.196l.041-5.556c-.491.151-.745.222-1.236.374z"/>
    <path stroke="#f3f0e6" stroke-width="8" d="M820.156 52.03c.385-.641.573-.971.958-1.623-.934-.606-1.589-1.587-1.99-2.898-.418-1.392-.459-2.738-.049-3.97.524-1.578 1.195-3.04 1.834-4.325.647-1.311 1.385-2.587 2.261-3.657-.745.16-1.45-.018-2.097-.473a5.66 5.66 0 0 1-1.769-2.024c-.434-.839-.803-1.784-1.007-2.685-.222-.945-.304-1.953-.32-2.916a27 27 0 0 0-.254-3.399 20 20 0 0 0-.745-3.264c.647.062.966.098 1.613.17 1.008-1.232 1.851-2.64 2.531-4.21a24 24 0 0 0 1.54-5.067 221 221 0 0 0-2.416-2.533c-.049-.383-.016-.731.123-1.034.172-.375.385-.625.622-.75.836-.365 1.704-.767 2.572-1.105.811-.322 1.704-.571 2.507-.839a9 9 0 0 1 1.605-.374 7.5 7.5 0 0 1 1.614 0c1.253.133 2.53.446 3.792.963a16 16 0 0 1 3.596 2.06q.637.495 1.064 1.392c.287.597.459 1.24.508 1.908 2.294-.16 3.44-.24 5.734-.41.467 0 .966-.116 1.466-.384.459-.25.901-.597 1.319-.999.565.482 1.155 1.035 1.761 1.561.573.5 1.171 1.088 1.695 1.793.303-.91.451-1.365.754-2.265a223 223 0 0 0-2.13-3.086c.606-.402 1.237-.874 1.876-1.294.614-.41 1.368-.749 2.023-1.097.549-.294 1.163-.535 1.818-.597.697-.072 1.352 0 1.966.205 1.548.473 3.105 1.16 4.636 1.953 1.507.785 3.039 1.722 4.497 2.872a1255 1255 0 0 0 7.97-1.41c.417-.062.827-.24 1.187-.525.418-.33.77-.785 1.049-1.276 1.31.937 2.522 2.194 3.645 3.71a25.6 25.6 0 0 1 2.94 5.183c.279.535.41 1.168.352 1.828-.073.74-.327 1.32-.696 1.695q-1.046 1.34-2.302 2.105c-.835.508-1.72.785-2.645.82.278.321.524.74.77 1.177.213.393.442.866.63 1.419q.075.238 0 .463-.002.35-.065.58-.072.23-.205.34a.5.5 0 0 1-.344.097 1.6 1.6 0 0 1-.622.09 2.2 2.2 0 0 1-.697-.152c-1.023 2.131-1.539 3.202-2.563 5.351 1.253 1.4 2.465 2.988 3.481 4.719 1.032 1.757 1.99 3.781 2.85 5.86.885 2.149 1.18 4.477.901 6.903s-1.032 4.272-2.277 5.539c-.344 16.161-.68 32.323-1.04 48.484-.041 2.417-.377 4.638-1.007 6.627-.631 1.998-1.565 3.594-2.638 4.825-1.04 1.187-2.293 1.748-3.669 1.65-1.377-.098-2.703-.838-3.891-2.194-1.245-1.418-2.425-3.148-3.44-5.119a30.5 30.5 0 0 1-2.433-6.431c-.409.339-.86.633-1.294.901-.401.25-.852.464-1.294.562a4.66 4.66 0 0 1-2.4-.116c-.827-.259-1.671-.669-2.343-1.267-.458-.41-.901-.972-1.318-1.561a6.9 6.9 0 0 1-.975-2.015c-1.237-.312-1.859-.473-3.104-.776-.222.793-.484 1.543-.803 2.131-.328.607-.77 1.142-1.221 1.588-1.228 1.159-2.645 1.391-4.259.758-1.654-.651-2.981-2.025-3.972-4.138a23.7 23.7 0 0 1-1.36-4.076 24 24 0 0 1-.598-4.282 14 14 0 0 1 .041-2.31c.09-.749.262-1.471.532-2.131-.024-2.4-.041-3.604-.065-6.048 0-.437-.188-.945-.434-1.49-.254-.57-.565-1.043-.983-1.257.024 7.412.033 11.06.057 18.026.025 2.051-.27 3.987-.835 5.753-.541 1.703-1.352 3.086-2.367 4.112-1.09 1.097-2.4 1.409-3.924.847-1.482-.544-2.711-1.73-3.579-3.559a40 40 0 0 1-2.302-6.154c-.598-2.105-1.056-4.335-1.409-6.6-.057-.607-.057-1.24.05-1.802a3.4 3.4 0 0 1 .606-1.4c.155-10.57.303-21.148.45-31.717-.647-.767-.974-1.15-1.63-1.917zm9.796-20.469c-.483-.83-.909-1.837-1.286-2.854-.712 1.142-1.073 1.713-1.786 2.863.992.955 1.483 1.445 2.474 2.417.95-.062 1.425-.089 2.367-.151-.663-.696-1.294-1.463-1.769-2.275Zm1.818-5.949c.508-.936.885-1.953 1.155-2.997-.475.018-.712.027-1.187.054-.32.892-.647 1.775-1.016 2.569-.377.811-.844 1.605-1.302 2.354l.63.357a11 11 0 0 0 1.72-2.337Zm28.676 26.553c.385-.527.574-.785.967-1.312a13.4 13.4 0 0 1 1.949 1.98c.656.821 1.229 1.758 1.745 2.694.049-2.23.066-3.354.115-5.583-5.079-.518-10.206-.678-15.26-.643-5.094.036-10.255.322-15.349.955.147.687.229 1.463.303 2.256.073.812.155 1.615.163 2.355.41-.847.885-1.605 1.434-2.283s1.171-1.133 1.859-1.356c.639.339.967.508 1.606.856 8.199.072 12.294.098 20.46.08zm-23.368 14.788c.688-.83 1.368-1.66 2.056-2.382-.647.063-1.343-.08-2.089-.41a8 8 0 0 1-2.023-1.285c.025 2.712.041 4.068.074 6.77.59-.936 1.278-1.837 1.982-2.693Zm18.888-.92c.549-.624.819-.936 1.368-1.56-6.438.009-9.665 0-16.128-.062.672.722 1.008 1.088 1.679 1.82 5.234-.054 7.855-.09 13.073-.197zm-11.729-35.381a13.7 13.7 0 0 1-1.859 2.185c2.113-.16 3.178-.25 5.291-.42-.336-.767-.639-1.498-.926-2.167-.319-.749-.639-1.471-.925-2.15-.508.848-1.024 1.731-1.581 2.543zm1.13-6.6c.549-.839.827-1.258 1.376-2.097-1.056.08-1.589.125-2.654.206.508.749.762 1.132 1.278 1.89Zm2.932 59.9c1.106.295 1.663.438 2.761.732a700 700 0 0 1-.033-4.38c-1.073 0-1.614-.008-2.695-.017l-.041 3.674zm13.147-51.864a9 9 0 0 1-1.057-2.346 22 22 0 0 1-.573-2.524c.467.026.942-.099 1.253-.384.319-.294.598-.83.827-1.427l.819-2.542-1.949.134c-.778 1.596-1.597 3.264-2.482 4.807-.868 1.517-1.835 3.015-2.752 4.46 2.367-.071 3.547-.107 5.914-.187zm3.628 31.172a3.1 3.1 0 0 1-1.171.794c-.41.17-.803.294-1.171.32-1.245.072-1.868.108-3.105.17a73 73 0 0 1 2.646 3.666 39 39 0 0 1 2.433 4.139zm-1.818 23.903c.573-.08.868-.116 1.441-.196l.041-5.556c-.491.151-.745.222-1.236.374z" mask="url(#e)"/>
    <path fill="#000" stroke="#f3f0e6" stroke-width="4" d="m1027.78 2.42.45.24 27.52 14.885.01.006.01.007c.74.41 1.39.987 1.99 1.676l.26.303v.003c.31.385.59.776.81 1.16.18.327.47.901.47 1.586v94.598c0 .678-.28 1.246-.47 1.581-.21.385-.5.779-.81 1.169l-.01.006c-.66.804-1.39 1.5-2.24 1.972v.001l-25.02 13.964-.01.005v-.001c-.88.489-2.16.792-3.56 1.022-1.39.227-2.5.369-3.24.369h-65.559v41.181l4.279 6.881.187-.167 1.171 2.35c.562 1.129.838 2.392.513 3.674-.326 1.284-1.172 2.26-2.204 2.981-1.993 1.39-4.611 1.965-7.611 1.965h-.193l-.191-.037-61.955-12.136c-3.141-.023-5.846-.577-7.825-1.966v-.001c-1.051-.735-1.92-1.772-2.132-3.165-.206-1.358.279-2.625.986-3.696l.061-.093.071-.086 5.375-6.451V20.371a182 182 0 0 1-2.82-4.353c-1.251-1.978-2.199-3.65-2.808-4.984l-.102-.213c-.492-1.073-.717-2.257-.411-3.46.326-1.282 1.171-2.257 2.199-2.98l.006-.003c1.986-1.384 4.603-1.958 7.608-1.958zm-69.399 76.576.728 13.031H989V43.053h-30.619zM1301.22 2.95c1.88 0 3.6.47 5.07 1.502 1.37.96 2.4 2.319 3.14 3.954l.14.331v.004c1.52 3.632 1.31 7.573-.38 11.665l-.02.026-4.33 10.04 20.5 90.604 20.84-90.606-4.32-9.996c-1.96-4.106-2.27-8.111-.56-11.802.82-1.767 1.93-3.224 3.41-4.233 1.49-1.016 3.22-1.489 5.1-1.489h67.71c1.89 0 3.63.508 5.11 1.584 1.38.997 2.43 2.402 3.22 4.093l.16.342v.003c1.64 3.801 1.39 7.716-.61 11.555l-12.85 26.184-55 193.976v115.649q1.11 5.39 2.58 10.509v.005l.37 1.354a88 88 0 0 1 1.76 7.973l.2 1.302v.004c.56 3.687.17 7.024-1.35 9.856-1.03 1.914-3.09 2.861-4.78 3.353-1.79.519-3.7.688-5.1.688h-.66l-.53-.395-53.57-39.83-.03-.024-.03-.026a55 55 0 0 0-2.2-1.671c-.66-.486-1.33-.961-1.92-1.421-1.21-.945-2.32-1.981-3.14-3.519v-.001c-1.57-2.912-1.77-6.475-.96-10.463l.03-.138.05-.132 5.59-15.681V216.925L1238.5 46.742l-12.83-26.154c-2.28-3.846-2.63-7.81-.81-11.674v-.007c.87-1.828 2.02-3.336 3.51-4.386 1.51-1.062 3.25-1.57 5.15-1.57zm-110.37-.53c.92 0 2.04.345 3.18.773 1.21.456 2.28.98 3.04 1.615l22.81 18.942-.25.302.26-.296c.02.012.03.026.04.039l.01.005v.002c.67.581 1.23 1.362 1.73 2.238l.22.39v.006c.28.528.51 1.03.68 1.493.16.434.31.973.31 1.53v224.332c0 .544-.14 1.087-.29 1.526-.16.476-.39 1.008-.66 1.582-.29.619-.62 1.19-1 1.669-.31.385-.7.78-1.21 1.068l-22.64 19.117v-.001c-.77.653-1.85 1.181-3.07 1.632v-.001c-1.13.425-2.25.769-3.16.769h-.33l-.31-.103-91.37-30.693c-.83-.075-1.8-.375-2.8-.756v-.001c-1.19-.448-2.26-.963-3.03-1.612l-23.03-19.122c-.55-.312-.95-.756-1.25-1.179-.35-.515-.62-1.12-.85-1.751v.001c-.37-1.05-.68-2.097-.68-2.922V29.46c0-.848.32-1.856.7-2.822l.01-.005c.44-1.113 1.03-2.136 1.88-2.868l.04-.03 25.47-20.862.55-.453zm-59.97 193.221 27.18 8.504V57.782h-27.18zM140.239 2.835l.599.73 25.885 31.516.007.008.007.01c.778.97 1.329 2.33 1.744 3.877.398 1.467.66 2.74.66 3.675v58.369l6.204 20.075.046.148.022.152c.564 3.841.177 7.247-1.427 10.018l-.001.002c-1.674 2.882-4.306 4.387-7.628 4.387h-58.989c-3.514 0-6.309-1.435-8.023-4.387v-.001c-1.65-2.838-1.864-6.308-1.007-10.163l.005-.021.006-.021 5.057-20.618V84.414H74.772v73.242l.125.154h66.994c.625 0 1.239.185 1.743.38.54.208 1.135.499 1.77.85l.004.002c1.234.686 2.312 1.456 3.065 2.355l18.178 19.607.048.053.045.056c.783.976 1.334 2.357 1.747 3.907.385 1.448.657 2.728.657 3.665v128.94c0 .263-.052.47-.069.535a3 3 0 0 1-.071.235 5 5 0 0 1-.132.333c-.089.206-.208.46-.344.738a96 96 0 0 1-1.116 2.184 506 506 0 0 1-3.322 6.204 1363 1363 0 0 1-4.791 8.749l-.021.038-.006.012-.001.001-.086.156-.114.139c-.088.109-.174.189-.18.195l-.071.064-.112.098q-.115.099-.299.25c-.244.203-.595.49-1.042.854-.894.728-2.189 1.774-3.824 3.092a7534 7534 0 0 1-13.471 10.828 46554 46554 0 0 1-40.623 32.548 135371 135371 0 0 1-57.602 46.085l-.984.787-.252.203-.065.05-.015.013-.005.004c-.004-.003-.06-.074-1.25-1.562l1.249 1.563-.988.789-1.136-.553-27.064-13.165-.076-.036-.072-.044c-.783-.466-1.243-1.232-1.528-1.839-.309-.66-.558-1.456-.768-2.336v-.001c-.394-1.611-.645-2.966-.645-3.882V276.587a130 130 0 0 0-2.665-10.054q-1.616-5.212-2.424-10.215l.001-.001c-.584-3.57-.174-6.809 1.424-9.563 1.666-2.875 4.297-4.388 7.628-4.388h58.987c3.396 0 6.158 1.346 8 4.05l.174.266.002.002c1.852 2.909 1.962 6.458.83 10.331v.001l-5.43 19.617v39.45l28.235-21.908.406-.331v-73.328l-.129-.157H38.607l-.56-.474-27.13-22.964-.138-.117-.116-.139c-.805-.98-1.349-2.367-1.758-3.896l-.143-.54c-.317-1.237-.517-2.311-.517-3.135V42.651c0-1.293.341-2.755.902-4.312.547-1.525 1.161-2.82 1.906-3.735l.017-.02.017-.021L37.755 3.532l.599-.697zm169.908-.415.553.453 25.474 20.86.013.012.011.01c.862.73 1.455 1.761 1.896 2.878.383.967.709 1.98.709 2.826v193.562c0 .817-.309 1.87-.684 2.922l-.001-.001c-.224.632-.499 1.236-.853 1.751-.295.427-.698.864-1.241 1.176l-23.015 19.112c-.772.654-1.85 1.181-3.069 1.633l-.001-.001c-.978.368-1.949.673-2.781.75l-91.368 30.692-.31.104h-.327c-.904 0-2.023-.334-3.175-.774-1.201-.451-2.282-.971-3.057-1.627v.001l-22.64-19.114c-.514-.291-.91-.694-1.209-1.073-.376-.478-.703-1.049-.996-1.66l-.003-.006a15 15 0 0 1-.659-1.579c-.149-.441-.296-.984-.296-1.531V29.46c0-.56.154-1.098.312-1.53.168-.46.401-.961.678-1.49l.003-.004c.565-1.068 1.212-2.004 1.988-2.67l.012-.013.014-.01 22.809-18.94c.773-.648 1.847-1.162 3.037-1.61 1.138-.428 2.273-.773 3.175-.774zm-62.205 201.71 27.178-8.504V57.775h-27.178zM415.113 2.956c3.384 0 6.303.864 8.137 3.124l.004.005c.905 1.122 1.413 2.449 1.308 3.918-.102 1.418-.757 2.722-1.689 3.89l-.029.036-3.858 4.618 20.554 46.951 20.9-46.958-3.825-4.58c-1.038-1.127-1.822-2.425-1.98-3.882-.169-1.56.414-2.945 1.424-4.072 1.95-2.177 4.854-3.05 8.268-3.05h68.575c3.32 0 6.155.883 8.086 3.018l.183.21.003.004c.96 1.143 1.542 2.521 1.37 4.062-.165 1.484-.992 2.757-2.071 3.821l-12.87 13.559-55.452 99.123v51.013a47 47 0 0 0 2.429 5.087l.002.002c.949 1.721 1.703 3.433 2.252 5.118l.224.72.002.01c.671 2.336.224 5.131-1.694 6.97l.001.001c-1.669 1.606-4.079 2.427-6.533 3.255l-.05.016-.049.014-57.354 16.066-.265.075h-.274c-3.056 0-5.73-.658-7.554-2.413-.92-.886-1.538-1.976-1.742-3.245-.196-1.221.016-2.456.478-3.647l5.661-15.78v-58.556L351.831 27.617l-12.844-13.532c-1.158-1.017-2.095-2.26-2.318-3.76-.242-1.631.425-3.06 1.463-4.198l.003-.003c2.037-2.224 4.973-3.168 8.403-3.168z"/>
</svg>
