<svg width="31" height="43" viewBox="0 0 31 43" fill="none" xmlns="http://www.w3.org/2000/svg">
<path d="M17.2632 1.80286C17.8395 2.01426 18.4537 2.35401 19.0831 2.51256C21.1961 3.83632 23.1599 5.04934 24.8887 6.88146C27.6741 9.83098 29.5444 13.2712 30.199 17.3054C30.8613 21.3874 30.4392 25.8721 28.8494 29.7125C27.0321 34.094 23.1321 38.3094 18.8859 40.4058C14.5133 42.5651 8.95279 43.003 4.23898 41.717C3.66524 41.5609 1.1352 40.7682 0.87234 40.3932C0.816734 40.3152 0.728271 40.1868 0.728271 40.0912C0.730799 39.7691 0.965857 39.6457 1.25652 39.6181C2.52028 39.4922 3.30128 39.4973 4.56756 39.1273C7.65112 38.2213 10.9268 36.3691 12.5949 33.5278C12.6632 33.412 13.0625 32.6344 13.0802 32.5589C13.1383 32.2896 12.9589 32.2468 12.9235 32.0681C12.8957 31.9272 12.8982 31.3836 12.9235 31.2376C12.969 30.9734 13.3431 30.6714 13.3532 30.3895C13.3633 30.1454 12.9336 29.8887 12.921 29.8308C12.8957 29.7125 12.9033 29.3073 12.921 29.179C12.9867 28.7436 13.6843 28.2101 13.5807 27.8502L13.4366 27.7118C12.4559 27.5759 11.081 27.6061 10.5856 26.5944C10.4642 26.3452 10.3859 26.1842 10.3985 25.8897C10.4238 25.3512 11.1821 23.9368 11.4677 23.3957C12.1956 22.0065 13.1813 20.6123 13.841 19.1728C14.4021 17.9547 14.0988 17.6225 14.0331 16.4145C13.9952 15.6973 14.0685 14.9624 14.028 14.2452C13.7273 8.90988 9.845 4.56614 5.00229 2.67362C4.67624 2.54527 3.89524 2.42951 3.69304 2.14009C3.47568 1.83054 3.60711 1.4757 3.95338 1.3549C4.66361 1.10575 5.6367 1.00005 6.38484 0.87925C10.3075 0.257637 13.52 0.433803 17.2582 1.80538L17.2632 1.80286ZM19.7225 4.70204C16.2421 2.65852 11.8417 1.51596 7.8053 2.11996C7.55508 2.15771 7.45903 2.28354 7.66629 2.47481C7.99487 2.7768 8.75565 3.02847 9.18027 3.3053C12.8452 5.69109 15.6633 9.99959 15.4889 14.4516C15.4637 15.1285 15.3322 15.7501 15.3828 16.4649C15.4257 17.0764 15.6558 17.8364 15.6001 18.4631C15.5243 19.3087 14.7155 20.343 14.3288 21.0955C13.793 22.1399 13.3557 23.2951 12.7491 24.3017C12.5595 24.6163 12.1804 24.9712 12.0414 25.2807C11.8822 25.633 11.9176 26.0659 12.3068 26.2144C12.9741 26.4686 13.654 26.237 14.3364 26.3654C14.6928 26.4333 15.1452 26.6372 15.5294 26.68C16.2775 26.763 16.7577 26.4837 16.4671 25.6909C16.3129 25.2706 15.911 24.9712 15.8377 24.5534C15.9312 24.2136 16.7097 24.5685 16.9119 24.6893C17.6575 25.1247 17.7308 26.3503 17.3416 27.0499C16.9423 27.7722 16.4165 27.8603 15.633 27.7999C15.3954 27.7823 15.3246 27.6313 15.0694 27.7395C14.7838 27.8603 14.7686 28.1723 14.6372 28.424C14.5361 28.6203 14.2631 28.882 14.3263 29.0985C14.4046 29.3552 15.0643 29.3803 15.2716 29.4407C15.9464 29.6345 16.778 29.9642 17.4857 29.705C17.5564 29.6773 17.7586 29.481 17.8471 29.4458C18.1504 29.33 18.4815 29.7352 18.3728 30.0271C18.1807 30.5455 17.3669 30.7267 16.8664 30.7569C16.1688 30.7997 15.2716 30.6336 14.6296 30.7569C14.0659 30.8652 13.9699 31.7737 14.5967 31.9549C14.8975 32.0404 15.1654 31.8945 15.2033 32.3575C15.2412 32.8281 14.6447 32.8508 14.5158 32.9842C14.301 33.2082 13.9623 34.0185 13.7576 34.3331C11.9631 37.1064 9.35972 39.1072 6.17758 40.1113C6.0411 40.1541 5.0301 40.3051 5.58109 40.5467C6.33682 40.8764 7.12287 40.8386 7.91398 40.8965C8.7051 40.9544 8.98059 40.9569 9.76412 40.8965C9.92588 40.8839 10.1559 41.0148 10.3758 41.0098C10.5957 41.0047 10.8358 40.9066 11.0481 40.894C19.6492 40.368 26.4179 34.245 28.4273 26.0533C30.3103 18.37 27.4946 10.0977 20.9964 5.51996L19.7276 4.69701L19.7225 4.70204Z" fill="black"/>
<path d="M22.1817 17.7432C22.4042 17.8967 22.6139 18.0728 22.8263 18.244C23.0689 18.478 23.8625 18.6794 24.0496 18.8631C24.09 18.9033 24.2113 19.1424 24.2189 19.2003C24.2846 19.6281 23.3975 19.6231 23.127 19.6155C22.5811 19.6004 21.886 19.5149 21.3401 19.4444C21.0848 19.4117 20.4833 19.2179 20.2836 19.2859C20.2179 19.3085 19.9904 20.0509 19.8564 20.2422C19.816 20.3001 19.725 20.2523 19.7452 20.3353C19.8539 20.368 19.9045 20.3907 20.0232 20.368C20.3998 20.2925 21.0064 19.7842 21.4513 19.7238C21.6535 19.764 21.6788 19.9352 21.6206 20.1164C21.5625 20.2976 20.5692 20.8965 20.3392 21.0148C19.9095 21.2338 18.8303 21.6364 18.3753 21.5584C17.8774 21.4754 17.9204 20.7959 18.4056 20.6927C18.4334 20.592 18.2944 20.2523 18.2439 20.1289C17.9962 19.53 17.9355 19.4645 17.2632 19.5551C16.9296 19.2003 17.5134 18.8253 17.5513 18.5661C17.5716 18.4327 17.473 18.1936 17.4705 18.0301C17.4654 17.5443 17.7207 16.5276 18.3222 16.4899C18.4486 16.4823 18.5497 16.5477 18.6508 16.5452C20.2431 16.4722 20.918 16.8648 22.1792 17.7381L22.1817 17.7432ZM21.7773 18.4227C21.244 17.8967 20.1623 17.3984 19.4217 17.2876C19.1007 17.2398 18.5598 17.197 18.4663 17.5922C18.2692 18.4453 18.6963 18.2163 19.2094 18.2767C19.629 18.327 20.0713 18.3824 20.4908 18.4503C20.736 18.4906 21.9088 18.8152 22.0351 18.7221C22.0023 18.556 21.8683 18.5133 21.7773 18.4227Z" fill="black"/>
<path d="M22.4597 14.4011C23.1877 14.7308 24.0192 15.3373 24.5525 15.9665C24.689 16.1275 25.1692 16.7642 25.2122 16.9253C25.2552 17.0864 25.2804 17.5998 25.0732 17.6551C24.7193 17.7508 24.09 17.0058 23.8271 16.7995C22.2297 15.5286 20.2507 14.6905 18.2337 15.5739C17.9456 15.6997 17.5867 15.9992 17.3491 16.0973C16.879 16.2961 16.5807 15.9262 16.6768 15.4732C16.8512 14.6502 17.9911 14.1897 18.7241 14.001C20.0662 13.6537 21.2137 13.8349 22.4597 14.3986V14.4011Z" fill="black"/>
</svg>
