<svg width="46" height="49" viewBox="0 0 46 49" fill="none" xmlns="http://www.w3.org/2000/svg">
<path d="M0.5 14.5721C1.08638 14.5218 1.88255 14.4287 2.46135 14.5419C3.70741 14.786 4.29127 15.5159 5.29974 15.9487C5.46656 16.0217 6.58877 16.4093 6.68229 16.4093H8.61331C8.66133 16.2709 8.631 16.1299 8.55517 16.0041C8.38836 15.7247 7.69582 15.2164 7.44055 14.9169C6.11866 13.3566 6.16415 11.5798 4.9004 10.0774L3.2651 8.7813L3.1918 8.44658C4.0006 8.3283 4.73611 8.36102 5.52469 8.59255C7.17263 9.07071 7.36978 9.70742 8.38836 10.85C8.95452 11.4842 10.1804 12.1385 10.9487 12.4481C11.199 12.5487 11.8687 12.8205 11.9142 12.4279C11.9572 12.0605 11.3632 11.1973 11.2116 10.782C10.4559 8.70831 11.2116 6.67989 10.1728 4.69677L9.34376 3.60958C9.41453 3.13393 10.3042 3.42083 10.6202 3.56931C11.573 4.01979 12.3616 4.86035 12.7786 5.82171C12.9808 6.28981 13.0567 6.79566 13.2387 7.25621C13.7315 8.50698 14.922 9.34754 15.847 10.2561C16.0872 10.3492 16.58 10.4574 16.5927 10.0925C16.6078 9.62186 16.4183 9.01031 16.3879 8.51956C16.2944 7.01712 16.6862 6.35273 17.1538 5.0491C17.5885 3.84363 17.773 3.18175 17.5253 1.85799C17.4773 1.60381 17.2372 1.28671 17.3661 1.02498C17.5809 0.589597 18.2937 1.42009 18.4554 1.61136C19.0443 2.30847 19.4614 3.4913 19.5751 4.39729C19.6686 5.1397 19.5372 6.02305 19.656 6.71261C19.752 7.26627 20.5735 8.87441 20.9501 9.32489C21.0588 9.45324 21.1624 9.60676 21.3545 9.54132C21.4253 9.50106 21.7564 8.55228 21.7993 8.39625C21.8827 8.09425 21.8929 7.68907 21.999 7.36946C22.6764 5.30328 25.027 4.07013 25.4364 1.87812C25.4743 1.67176 25.4137 1.04763 25.6159 0.939411C25.7574 0.856361 26.0734 1.15584 26.134 1.26406C26.4373 1.80262 26.6117 3.16665 26.5662 3.78323C26.4702 5.08434 25.6007 6.31749 25.5603 7.62867C25.5476 8.04895 25.6538 8.70831 25.7397 9.12104C25.8155 9.47086 25.9723 9.81564 26.0405 10.1705C26.3691 10.4196 26.733 9.58914 26.9049 9.37019C27.2663 8.90713 27.7137 8.42897 28.1636 8.04644C29.3313 7.05236 30.8984 6.59181 31.8234 5.32845C32.1925 4.8226 32.4098 4.19344 32.7384 3.66243C32.9153 3.49381 33.0619 3.51143 33.1428 3.75303C33.6382 5.25798 33.1302 6.65724 32.4427 7.9206C31.8816 8.94991 30.6507 10.392 30.6507 11.5848V12.6167C31.1031 12.6972 31.0601 12.5538 31.3104 12.3424C33.1984 10.7443 35.5818 10.8676 37.571 9.62186C38.1346 9.26953 38.6149 8.78885 39.1684 8.42393L39.3681 8.44406C39.3453 9.17641 39.1355 9.85339 38.7791 10.4926C38.0184 11.8491 37.3486 12.1687 36.2289 13.0646C35.4555 13.6837 34.7377 14.5042 34.3181 15.4102C34.2094 15.6467 34.1184 15.8481 34.1791 16.1199C34.495 16.286 34.7705 15.9714 35.0561 15.8682C37.6013 14.9421 39.9241 16.1551 42.4617 15.0528C42.6665 14.9647 43.3211 14.4161 43.4449 14.8288C43.5688 15.2415 42.9824 15.8959 42.7246 16.1928C41.198 17.9595 39.3655 17.8312 37.6898 19.0492C37.3511 19.2959 36.8456 19.7413 36.5726 20.0509C36.1505 20.5341 36.1884 20.6926 36.8835 20.7505C38.3141 20.8663 38.9889 20.8059 40.3892 21.3268C41.7894 21.8478 42.4466 22.2177 44.097 22.2026C44.5115 22.2001 44.9741 22.0541 45.3886 22.0315C45.52 22.0315 45.6186 22.1019 45.6413 22.2328C45.6439 22.4845 45.3962 22.5524 45.29 22.648C44.3397 23.4811 43.1037 24.1329 41.8096 24.2109C39.9797 24.3191 39.1709 24.0725 37.4876 25.0439C37.2374 25.1873 36.5423 25.4289 36.9138 25.7964C38.2433 26.0682 39.4717 26.6269 40.5282 27.4649C41.3016 28.2702 42.3151 29.2291 43.4121 29.5764C44.0263 29.7727 46.1746 30.0269 44.3523 30.7013C43.3388 31.0763 41.931 31.1493 40.8921 30.8624C40.4448 30.7391 39.9747 30.4597 39.5425 30.3112C38.4758 29.9488 37.0882 29.8583 35.9964 30.1779C35.7967 30.2357 35.5793 30.3918 35.7562 30.6007C35.9332 30.8095 36.5625 31.1342 36.8279 31.3431C38.4127 32.5888 38.8651 34.499 40.3538 35.8579C40.8947 36.3512 41.5114 36.6985 42.1155 37.1087C42.396 37.7731 41.1045 37.5491 40.7455 37.5265C37.6392 37.3377 37.5483 35.5962 35.1496 34.7984C34.7983 34.6827 33.6407 34.3681 33.3602 34.5694C33.3172 34.5996 33.2793 34.6449 33.2869 34.7028C33.3121 34.8513 34.0198 35.8177 34.1589 36.0668C34.8792 37.378 34.8185 38.06 35.0839 39.4366C35.2988 40.5439 36.0545 41.684 36.7597 42.5623C36.8633 42.6932 37.0958 42.8316 37.1666 42.9901C37.298 43.2846 36.9644 43.355 36.7192 43.3223C35.592 43.1713 34.1235 42.3056 33.4309 41.4122C32.9532 40.7956 32.6247 39.8997 32.0863 39.3259C31.7501 38.9685 30.4207 37.9694 29.9809 37.8285C29.2454 37.5944 29.852 38.737 29.9177 39.0063C30.4864 41.3644 29.4855 43.3601 30.1073 45.5596C30.2159 45.9422 30.6001 46.6242 30.6481 46.9161C30.7467 47.4949 30.0896 47.0973 29.8545 46.9362C29.0609 46.3977 28.0903 45.0337 27.7946 44.1277C27.6429 43.6621 27.5899 43.1084 27.4458 42.6353C27.1349 41.611 26.5308 40.7931 25.8206 40.0482C25.6791 39.8997 25.4314 39.6304 25.3909 39.9978C25.2469 41.2964 25.0725 42.3912 24.5467 43.6042C24.524 43.6545 24.4633 43.6596 24.4482 43.6948C23.7683 45.2652 23.4422 46.1385 23.5458 47.9152C23.5635 48.2197 23.9123 49.1282 23.326 48.9143C22.9266 48.7684 22.3908 47.8045 22.2669 47.4069C21.8398 46.0328 21.8752 44.7317 21.9232 43.3425C21.9358 42.9574 21.9965 42.5548 21.9712 42.1747C21.951 41.8828 21.9409 41.5682 21.8145 41.3115L21.6603 41.4072C21.496 41.9885 21.3848 42.6001 21.1953 43.1739C20.8616 44.1956 20.2727 45.011 20.1944 46.1309C20.1438 46.8356 20.3005 47.422 20.3612 48.0788C20.3865 48.3431 20.3511 48.64 20.3536 48.9068C20.0225 49.2516 19.565 48.4462 19.4209 48.182C19.1631 47.7038 19.0595 47.2106 18.9053 46.6997C18.8902 46.6519 18.8068 46.6594 18.7992 46.6191C18.5894 45.7182 18.693 44.2736 18.8017 43.3475C18.8952 42.5573 18.8801 42.0036 18.7158 41.1958C18.6703 40.9693 18.4403 40.2621 18.3392 40.0683C18.2709 39.9374 18.1496 39.9576 18.0232 39.9827C17.4975 41.0573 16.8783 42.0489 15.981 42.8492C14.9649 43.7552 13.7745 44.5857 13.2766 45.922C13.1729 46.1989 12.996 47.1929 12.8191 47.349C12.5588 47.5805 12.263 47.2156 12.21 46.9539C12.0861 46.3322 12.0078 45.0362 12.0886 44.407C12.3389 42.4793 13.8073 41.1253 13.825 39.112C13.8276 38.7194 13.6633 38.3142 13.7088 37.914C13.6304 37.8335 13.0668 38.3343 12.9707 38.4199C12.5916 38.7571 12.258 39.1573 11.8182 39.4542C10.7895 40.1488 9.65211 40.4005 8.61836 41.0045C7.81209 41.4776 7.31164 42.0011 6.74042 42.7259C6.57108 42.9398 6.23745 43.7351 5.86085 43.4884C5.68645 43.3752 5.79008 42.3534 5.82547 42.1219C6.1313 40.1941 7.11197 39.4115 8.34286 38.1103C8.96716 37.4485 9.67487 35.9964 9.86948 35.1155C9.89476 35.0023 9.86443 34.9117 9.75574 34.8538C9.54596 34.7884 8.77254 35.2363 8.51726 35.332C7.05889 35.868 6.21976 35.79 4.73105 35.9083C3.62148 35.9964 2.55739 36.623 1.67024 37.2471C1.46804 37.3906 1.20265 37.7983 0.934732 37.6876C0.689564 37.5013 0.970117 36.852 1.07627 36.6129C1.60199 35.41 2.64838 34.1617 3.8439 33.5753C5.18853 32.916 5.56008 32.8732 6.55086 31.6627C6.77328 31.3909 7.33944 30.9656 7.07153 30.5579C6.17679 30.5604 5.11524 30.7164 4.23313 30.6107C3.54565 30.5277 2.72927 30.1577 2.02914 30.0193C1.5287 29.9212 1.01814 29.8733 0.505056 29.8935V27.7191C1.10913 27.6461 1.78145 27.636 2.37541 27.548C2.82531 27.48 3.41422 27.3718 3.83631 27.2208C4.46566 26.9943 5.62327 26.418 6.04283 25.9071C6.20459 25.7108 6.14646 25.4516 5.89118 25.3937C5.59041 25.3258 5.19611 25.361 4.82457 25.2855C3.1918 24.9558 1.95079 23.9265 0.507582 23.2067V21.0324C1.70815 20.8637 2.81773 21.508 4.00566 21.4803C4.56424 21.4677 5.76481 21.2186 6.28295 21.0198C6.77328 20.831 6.54328 20.5794 6.21976 20.3831C5.55755 19.9829 4.95853 19.7665 4.33929 19.248C3.13872 18.2464 2.69388 16.8623 1.38715 15.9437C1.1521 15.7801 0.78561 15.5284 0.505056 15.5159V14.5696L0.5 14.5721ZM29.8343 13.7718C21.2964 7.25872 9.19969 12.4153 7.83736 22.9651C7.4734 25.7863 7.89044 28.2728 9.07837 30.8548C10.3295 33.5779 13.1552 36.3562 15.933 37.5114C18.8371 38.7169 21.9156 39.0163 24.9714 38.2488C30.0011 36.9829 34.4091 32.2164 35.0738 27.027C35.549 23.3326 34.8944 19.8873 32.7814 16.7742C31.917 15.5033 31.0323 14.6828 29.8368 13.7718H29.8343Z" fill="black"/>
<path d="M20.1009 20.0157C20.9679 21.7647 20.5862 23.7302 20.4725 25.6353C20.4548 25.9424 20.518 26.3526 20.4674 26.6345C20.3537 27.2687 19.4893 27.6285 19.4084 26.7477C19.3401 26.0103 19.5247 24.9709 19.512 24.1908C19.4716 21.5005 18.1876 19.1827 15.3467 18.7548C13.4738 18.473 12.4704 19.0921 10.9716 19.9024C10.7896 20.0006 10.2512 20.3554 10.1173 20.1767C9.94539 19.9502 10.1552 19.7338 10.2917 19.5601C12.4704 16.7944 18.4403 16.666 20.1009 20.0131V20.0157Z" fill="black"/>
<path d="M32.5311 19.4436C32.6853 19.587 33.0594 20.0123 32.8117 20.2061C32.746 20.2615 32.6701 20.264 32.5893 20.2564C32.3567 20.2338 31.4544 19.5996 31.1587 19.4486C28.9598 18.3262 26.1871 18.3337 24.5897 20.4301C24.2232 20.9083 23.6368 22.1213 23.5635 22.6951C23.4498 23.5709 23.47 24.5146 23.4927 25.4156C23.5029 25.8182 23.6444 26.5883 23.5383 26.9608C23.4372 27.3182 22.962 27.3484 22.7294 27.0967C22.4337 26.7771 22.5197 25.549 22.4919 25.0783C22.3124 22.222 21.8878 19.514 24.9486 18.0569C27.4837 16.8514 30.5268 17.5787 32.5362 19.4461L32.5311 19.4436Z" fill="black"/>
<path d="M17.7073 21.3358C17.8792 21.4591 18.3291 21.8291 18.4049 22.0052C18.4909 22.2015 18.5288 22.5413 18.2583 22.5916C17.6947 22.6998 17.5228 22.2015 17.1083 21.9549C16.9036 21.8341 16.6508 21.7636 16.441 21.6454C16.3046 22.1864 16.2742 22.7351 15.9381 23.2057C16.1276 23.2107 16.3121 23.2157 16.4992 23.1805C16.8151 23.1226 17.3585 22.7577 17.586 22.7577C17.7857 22.7577 18.0334 22.9641 18.0081 23.1704C18.0031 23.2208 17.3004 23.7266 17.2044 23.7744C16.297 24.2149 14.5454 24.2576 13.5698 24.0412C13.5294 24.0337 13.5319 23.9481 13.4864 23.9355C12.991 23.7921 12.6523 23.6989 12.2302 23.3743C12.1215 23.2912 11.9016 22.9817 11.8005 22.9515C11.4897 22.8609 10.6783 23.261 10.2006 23.2082C9.86194 23.1704 9.5283 22.7678 9.93018 22.5463C10.0414 22.4859 10.1652 22.4909 10.2689 22.4381C12.7003 21.2125 14.9928 19.3804 17.7023 21.3358H17.7073ZM14.0045 23.022C13.7492 22.574 13.6835 22.0455 13.7012 21.5371C13.5167 21.5799 12.3692 22.2569 12.3541 22.35C12.3035 22.6696 13.4712 23.1478 13.7417 23.1956C13.8478 23.2132 13.954 23.2132 14.0601 23.2107C14.189 23.0924 14.0121 23.0396 14.002 23.0245L14.0045 23.022Z" fill="black"/>
<path d="M30.1831 21.0593C30.772 21.3336 31.3002 21.8319 31.8891 22.1188C32.1469 22.2447 33.158 22.5265 33.2591 22.7102C33.3804 22.9317 32.9608 23.1909 32.7536 23.2136C32.4907 23.2413 31.9801 23.1003 31.6945 23.0399C31.6111 23.0223 31.5479 22.9544 31.462 22.9367C31.0197 22.8512 30.9085 23.2337 30.5925 23.4552C29.3819 24.3033 26.3337 24.4971 25.2165 23.4325C24.9612 23.1909 24.8627 22.8512 25.3151 22.821C25.5451 22.8059 26.1264 23.1481 26.4424 23.196C26.6319 23.2236 26.824 23.2035 27.0161 23.2085L26.7634 22.7631L26.4247 21.7086C26.3792 21.6985 25.952 21.8948 25.8762 21.9351C25.5249 22.1339 25.0244 22.8738 24.5897 22.5995C24.1929 22.3478 24.8374 21.6507 25.0699 21.4645C26.5788 20.254 28.477 20.2666 30.1806 21.0593H30.1831ZM30.1831 22.0609C30.0516 21.9678 29.3086 21.4846 29.1999 21.5928C29.2732 22.1843 29.071 22.675 28.8637 23.2085C29.028 23.352 30.2993 22.7908 30.4687 22.5794C30.6582 22.3428 30.3777 22.2019 30.1831 22.0609Z" fill="black"/>
<path d="M17.1588 31.0229L17.2903 31.4482C17.6896 31.4608 18.0763 31.4985 18.4731 31.4432C18.9382 31.3777 19.9214 30.9927 20.3056 31.0934C20.5406 31.1538 20.9071 31.4256 21.1675 31.4608C21.9333 31.564 22.2644 31.1135 22.8483 31.121C23.7278 31.1311 24.476 31.5967 25.4794 31.4608C25.8889 31.4054 25.5401 30.8971 26.2579 31.0153C26.7482 31.0959 27.0844 31.8735 26.8165 32.2913C26.6117 32.6109 26.1694 32.3316 26.0329 32.0673C25.7195 32.1831 25.3556 32.3089 25.0219 32.3416C23.9781 32.4423 23.2931 32.4951 22.2922 32.7443C21.0209 33.0589 21.0613 32.7141 19.9795 32.5329C18.9963 32.3668 17.9095 32.4473 16.9718 32.0723C16.8227 32.0723 16.3703 32.7392 16.1023 32.3114C15.7283 31.7099 16.4385 30.7133 17.1538 31.0254L17.1588 31.0229Z" fill="black"/>
<path d="M18.4479 27.0065C18.5945 27.2431 18.0106 27.9478 18.4302 28.3907C18.7638 28.7405 19.0141 28.5618 19.378 28.5568C19.9467 28.5467 20.2829 28.5417 20.8187 28.743C20.9577 28.7959 21.1094 28.9418 21.2534 28.9796C21.7615 29.1105 21.8095 28.9041 22.1937 28.743C22.8862 28.4536 23.4448 28.587 24.1677 28.592C24.5139 28.509 24.7085 28.0862 24.6656 27.7565C24.6327 27.5074 24.1778 26.9839 24.6959 26.9386C25.2418 26.8908 25.5477 27.8068 25.5022 28.2473C25.4617 28.6373 25.0144 29.2539 24.6555 29.4099C24.4811 29.4854 23.9553 29.4653 23.7456 29.4527C23.5585 29.4427 23.3589 29.337 23.2021 29.3521C22.8357 29.3823 22.4616 29.8227 22.1381 29.9661C21.7412 30.1423 21.2459 30.1222 20.844 29.9485C20.6266 29.8554 20.2551 29.4779 20.0781 29.4326C19.3553 29.2413 18.6577 29.7723 17.9854 29.1759C17.5582 28.7959 17.3484 28.2875 17.4672 27.7112C17.5279 27.4193 17.8413 26.9336 18.1775 26.9185C18.2331 26.9185 18.4378 26.9864 18.453 27.0116L18.4479 27.0065Z" fill="black"/>
<path d="M24.0892 33.8892C24.0665 33.9371 23.5382 34.4152 23.4649 34.463C22.4059 35.1727 19.7166 35.0872 18.9179 33.9824C18.8219 33.849 18.6197 33.4715 18.8017 33.3557C18.9356 33.2701 19.6863 33.7106 19.9087 33.7684C20.7453 33.9849 22.2543 33.9849 23.0707 33.7357C23.2501 33.6804 24.0589 33.1972 24.1575 33.552C24.1474 33.6552 24.1347 33.7986 24.0892 33.8867V33.8892Z" fill="black"/>
</svg>
